<svg id="svg" version="1.1" xmlns="http://www.w3.org/2000/svg" xmlns:xlink="http://www.w3.org/1999/xlink" width="400" height="400" viewBox="0, 0, 400,400"><g id="svgg"><path id="path0" d="M186.164 38.200 C 185.231 39.133,184.896 39.200,181.182 39.200 C 177.201 39.200,177.200 39.200,177.200 40.200 C 177.200 41.178,177.133 41.200,174.200 41.200 C 171.281 41.200,171.200 41.227,171.200 42.182 C 171.200 43.125,171.081 43.170,168.300 43.282 C 165.639 43.390,165.389 43.474,165.272 44.300 C 165.159 45.094,164.913 45.200,163.172 45.200 C 161.335 45.200,161.200 45.269,161.200 46.200 C 161.200 47.133,161.067 47.200,159.200 47.200 C 157.345 47.200,157.200 47.271,157.200 48.178 C 157.200 49.061,157.015 49.168,155.300 49.278 C 153.679 49.382,153.381 49.532,153.272 50.300 C 153.180 50.951,152.876 51.200,152.172 51.200 C 151.408 51.200,151.200 51.409,151.200 52.178 C 151.200 53.061,151.015 53.168,149.300 53.278 C 147.679 53.382,147.381 53.532,147.272 54.300 C 147.180 54.951,146.876 55.200,146.172 55.200 C 145.402 55.200,145.200 55.408,145.200 56.200 C 145.200 57.000,145.000 57.200,144.200 57.200 C 143.400 57.200,143.200 57.400,143.200 58.200 C 143.200 59.005,143.001 59.200,142.182 59.200 C 141.622 59.200,140.727 59.637,140.193 60.171 C 139.659 60.705,138.812 61.200,138.311 61.271 C 137.731 61.353,137.355 61.718,137.275 62.275 C 137.198 62.821,136.821 63.198,136.275 63.275 C 135.730 63.353,135.353 63.730,135.275 64.275 C 135.198 64.821,134.821 65.198,134.275 65.275 C 133.755 65.350,133.353 65.729,133.284 66.212 C 133.220 66.659,132.770 67.199,132.284 67.412 C 131.607 67.709,131.371 68.198,131.277 69.500 C 131.168 71.002,131.040 71.200,130.177 71.200 C 129.402 71.200,129.200 71.406,129.200 72.200 C 129.200 73.000,129.000 73.200,128.200 73.200 C 127.400 73.200,127.200 73.400,127.200 74.200 C 127.200 75.000,127.000 75.200,126.200 75.200 C 125.405 75.200,125.200 75.401,125.200 76.182 C 125.200 76.722,124.750 77.614,124.200 78.164 C 123.650 78.714,123.200 79.622,123.200 80.182 C 123.200 81.001,123.005 81.200,122.200 81.200 C 121.267 81.200,121.200 81.333,121.200 83.200 C 121.200 85.067,121.133 85.200,120.200 85.200 C 119.328 85.200,119.200 85.375,119.200 86.571 C 119.200 87.557,118.919 88.163,118.200 88.729 C 117.392 89.364,117.200 89.869,117.200 91.358 C 117.200 93.056,117.122 93.200,116.200 93.200 C 115.267 93.200,115.200 93.333,115.200 95.200 C 115.200 97.067,115.133 97.200,114.200 97.200 C 113.222 97.200,113.200 97.267,113.200 100.200 C 113.200 103.133,113.178 103.200,112.200 103.200 C 111.223 103.200,111.200 103.268,111.200 106.182 C 111.200 108.829,111.088 109.276,110.200 110.164 C 109.222 111.142,109.200 111.296,109.200 117.182 L 109.200 123.200 108.200 123.200 L 107.200 123.200 107.200 133.000 L 107.200 142.800 108.200 142.800 L 109.200 142.800 109.200 148.642 C 109.200 154.398,109.215 154.497,110.200 155.271 C 111.125 155.999,111.200 156.310,111.200 159.429 C 111.200 162.758,111.212 162.800,112.200 162.800 C 113.178 162.800,113.200 162.867,113.200 165.800 C 113.200 168.733,113.222 168.800,114.200 168.800 C 115.133 168.800,115.200 168.933,115.200 170.800 C 115.200 172.667,115.267 172.800,116.200 172.800 C 117.122 172.800,117.200 172.944,117.200 174.642 C 117.200 176.131,117.392 176.636,118.200 177.271 C 118.919 177.837,119.200 178.443,119.200 179.429 C 119.200 180.625,119.328 180.800,120.200 180.800 C 121.133 180.800,121.200 180.933,121.200 182.800 C 121.200 184.667,121.267 184.800,122.200 184.800 C 122.950 184.800,123.200 185.011,123.200 185.642 C 123.200 186.106,123.650 186.839,124.200 187.271 C 124.919 187.837,125.200 188.443,125.200 189.429 C 125.200 190.625,125.328 190.800,126.200 190.800 C 127.000 190.800,127.200 191.000,127.200 191.800 C 127.200 192.600,127.400 192.800,128.200 192.800 C 129.000 192.800,129.200 193.000,129.200 193.800 C 129.200 194.600,129.400 194.800,130.200 194.800 C 131.072 194.800,131.200 194.975,131.200 196.171 C 131.200 197.454,132.020 198.800,132.801 198.800 C 132.990 198.800,133.202 199.205,133.272 199.700 C 133.353 200.270,133.721 200.646,134.275 200.725 C 134.821 200.802,135.198 201.179,135.275 201.725 C 135.350 202.245,135.729 202.647,136.212 202.716 C 136.659 202.780,137.199 203.230,137.412 203.716 C 137.648 204.254,138.227 204.649,138.891 204.726 C 139.491 204.795,140.327 205.290,140.749 205.826 C 141.170 206.362,141.894 206.800,142.358 206.800 C 142.989 206.800,143.200 207.050,143.200 207.800 C 143.200 208.600,143.400 208.800,144.200 208.800 C 145.000 208.800,145.200 209.000,145.200 209.800 C 145.200 210.592,145.402 210.800,146.172 210.800 C 146.876 210.800,147.180 211.049,147.272 211.700 C 147.381 212.468,147.679 212.618,149.300 212.722 C 151.015 212.832,151.200 212.939,151.200 213.822 C 151.200 214.571,151.412 214.800,152.105 214.800 C 152.660 214.800,153.163 215.148,153.405 215.700 C 153.710 216.395,154.187 216.628,155.500 216.723 C 157.002 216.832,157.200 216.960,157.200 217.823 C 157.200 218.729,157.346 218.800,159.200 218.800 C 161.067 218.800,161.200 218.867,161.200 219.800 C 161.200 220.731,161.335 220.800,163.172 220.800 C 164.913 220.800,165.159 220.906,165.272 221.700 C 165.389 222.526,165.639 222.610,168.300 222.718 C 171.081 222.830,171.200 222.875,171.200 223.818 C 171.200 224.773,171.281 224.800,174.200 224.800 C 177.133 224.800,177.200 224.822,177.200 225.800 L 177.200 226.800 182.200 226.800 L 187.200 226.800 187.200 227.800 L 187.200 228.800 204.000 228.800 L 220.800 228.800 220.800 227.812 L 220.800 226.825 225.700 226.712 C 230.438 226.604,230.604 226.570,230.728 225.700 C 230.842 224.894,231.093 224.795,233.128 224.754 C 236.524 224.685,236.600 224.664,236.600 223.800 C 236.600 223.148,236.933 222.963,238.400 222.800 C 239.979 222.625,240.188 222.489,240.105 221.700 C 240.019 220.886,240.181 220.800,241.805 220.800 C 243.453 220.800,243.600 220.718,243.600 219.800 C 243.600 218.881,243.747 218.800,245.400 218.800 C 247.051 218.800,247.200 218.718,247.200 217.805 C 247.200 216.957,247.431 216.772,248.765 216.559 C 249.834 216.388,250.393 216.069,250.529 215.552 C 250.649 215.093,251.224 214.695,251.990 214.542 C 252.685 214.403,253.521 213.881,253.848 213.383 C 254.175 212.884,254.877 212.367,255.410 212.233 C 255.942 212.100,256.568 211.633,256.803 211.195 C 257.037 210.758,257.473 210.400,257.773 210.400 C 258.278 210.400,259.065 209.811,262.048 207.200 C 262.676 206.650,263.743 205.750,264.417 205.200 C 265.524 204.298,273.385 196.592,275.245 194.586 C 275.660 194.138,276.000 193.625,276.000 193.446 C 276.000 193.267,276.495 192.629,277.100 192.028 C 277.705 191.427,278.521 190.500,278.914 189.968 C 279.306 189.435,280.161 188.300,280.814 187.445 C 281.466 186.590,282.000 185.673,282.000 185.407 C 282.000 185.141,282.375 184.585,282.833 184.170 C 283.291 183.755,283.927 182.873,284.246 182.208 C 285.254 180.108,286.775 177.568,287.398 176.945 C 287.729 176.614,288.000 176.020,288.000 175.625 C 288.000 175.231,288.343 174.472,288.761 173.940 C 289.180 173.407,289.737 172.168,289.999 171.186 C 290.260 170.204,290.750 169.091,291.086 168.714 C 291.423 168.337,291.850 167.212,292.037 166.215 C 292.223 165.217,292.723 163.905,293.148 163.300 C 293.572 162.695,294.022 161.232,294.147 160.049 C 294.272 158.867,294.687 157.427,295.069 156.849 C 295.505 156.190,295.949 154.185,296.263 151.458 C 296.562 148.861,297.028 146.712,297.422 146.110 C 297.971 145.272,298.149 143.120,298.483 133.252 C 299.268 110.077,299.297 112.231,298.182 111.183 C 297.334 110.386,297.199 109.902,297.195 107.630 C 297.187 104.238,296.897 103.200,295.953 103.200 C 295.330 103.200,295.200 102.897,295.200 101.450 C 295.200 98.609,294.793 97.200,293.972 97.200 C 293.387 97.200,293.220 96.826,293.122 95.300 C 293.019 93.693,292.864 93.381,292.121 93.275 C 291.379 93.169,291.223 92.856,291.121 91.275 C 291.019 89.693,290.862 89.380,290.121 89.275 C 289.379 89.169,289.223 88.856,289.121 87.275 C 289.018 85.679,288.866 85.381,288.100 85.272 C 287.424 85.176,287.199 84.877,287.195 84.072 C 287.185 82.215,286.747 81.200,285.953 81.200 C 285.437 81.200,285.200 80.915,285.200 80.295 C 285.200 79.744,284.852 79.235,284.309 78.995 C 283.690 78.721,283.315 78.080,283.085 76.900 C 282.836 75.624,282.566 75.200,282.004 75.200 C 281.532 75.200,281.208 74.867,281.128 74.300 C 281.046 73.722,280.678 73.354,280.100 73.272 C 279.449 73.180,279.200 72.876,279.200 72.172 C 279.200 71.402,278.992 71.200,278.200 71.200 C 277.475 71.200,277.200 70.985,277.200 70.419 C 277.200 69.207,276.354 67.639,275.565 67.389 C 275.172 67.264,274.794 66.766,274.725 66.281 C 274.647 65.730,274.272 65.353,273.725 65.275 C 273.179 65.198,272.802 64.821,272.725 64.275 C 272.650 63.755,272.271 63.353,271.788 63.284 C 271.341 63.220,270.801 62.771,270.588 62.286 C 270.375 61.801,269.850 61.339,269.423 61.258 C 268.995 61.178,268.307 60.681,267.894 60.156 C 267.470 59.617,266.718 59.200,266.171 59.200 C 265.402 59.200,265.200 58.992,265.200 58.200 C 265.200 57.408,264.998 57.200,264.228 57.200 C 263.524 57.200,263.220 56.951,263.128 56.300 C 263.037 55.662,262.687 55.364,261.925 55.276 C 261.172 55.189,260.812 54.889,260.725 54.276 C 260.622 53.558,260.298 53.378,258.925 53.278 C 257.551 53.178,257.227 52.999,257.125 52.278 C 257.037 51.663,256.678 51.363,255.925 51.276 C 255.172 51.189,254.812 50.889,254.725 50.276 C 254.619 49.536,254.305 49.381,252.700 49.278 C 250.985 49.168,250.800 49.061,250.800 48.178 C 250.800 47.271,250.655 47.200,248.800 47.200 C 246.933 47.200,246.800 47.133,246.800 46.200 C 246.800 45.269,246.665 45.200,244.828 45.200 C 243.087 45.200,242.841 45.094,242.728 44.300 C 242.611 43.474,242.361 43.390,239.700 43.282 C 236.919 43.170,236.800 43.125,236.800 42.182 C 236.800 41.227,236.719 41.200,233.800 41.200 C 230.867 41.200,230.800 41.178,230.800 40.200 C 230.800 39.200,230.799 39.200,226.818 39.200 C 223.104 39.200,222.769 39.133,221.836 38.200 L 220.836 37.200 204.000 37.200 L 187.164 37.200 186.164 38.200 M215.766 51.594 C 218.387 51.842,221.138 52.297,221.878 52.607 C 222.618 52.916,224.334 53.370,225.690 53.616 C 227.047 53.862,228.834 54.409,229.662 54.832 C 230.491 55.254,231.497 55.600,231.899 55.600 C 232.302 55.600,233.329 55.956,234.183 56.391 C 235.036 56.826,236.379 57.389,237.167 57.642 C 237.955 57.894,238.870 58.326,239.200 58.600 C 239.530 58.874,240.472 59.315,241.294 59.579 C 242.116 59.842,242.905 60.246,243.046 60.475 C 243.188 60.703,244.090 61.239,245.052 61.664 C 246.013 62.089,246.800 62.609,246.800 62.819 C 246.800 63.028,247.038 63.200,247.330 63.200 C 248.137 63.200,251.336 65.500,257.064 70.198 C 260.696 73.177,267.120 79.676,268.334 81.600 C 268.682 82.150,269.386 83.140,269.900 83.800 C 271.793 86.232,272.080 86.628,272.931 87.976 C 274.945 91.167,275.610 92.285,276.393 93.800 C 276.848 94.680,277.457 95.850,277.747 96.400 C 279.638 99.992,280.400 101.689,280.400 102.306 C 280.400 102.694,280.763 103.689,281.207 104.517 C 281.650 105.344,282.212 106.962,282.455 108.111 C 282.698 109.260,283.167 110.728,283.496 111.372 C 283.826 112.017,284.263 113.907,284.469 115.572 C 284.674 117.238,285.147 119.590,285.521 120.800 C 286.083 122.621,286.200 124.724,286.200 133.000 C 286.200 141.276,286.083 143.379,285.521 145.200 C 285.147 146.410,284.674 148.762,284.469 150.428 C 284.263 152.093,283.821 153.986,283.485 154.636 C 283.149 155.285,282.688 156.827,282.459 158.062 C 282.231 159.297,281.675 160.914,281.224 161.654 C 280.772 162.394,280.402 163.324,280.401 163.721 C 280.401 164.117,280.040 165.107,279.601 165.921 C 279.162 166.734,278.530 168.030,278.198 168.800 C 277.865 169.570,277.065 171.100,276.419 172.200 C 275.773 173.300,275.008 174.650,274.719 175.200 C 274.034 176.505,272.071 179.483,270.896 181.000 C 270.385 181.660,269.659 182.612,269.283 183.115 C 265.920 187.619,261.570 192.138,257.000 195.875 C 255.020 197.494,253.130 199.059,252.800 199.354 C 252.470 199.648,251.781 200.108,251.270 200.375 C 250.758 200.642,249.998 201.202,249.580 201.620 C 249.162 202.038,248.366 202.494,247.810 202.633 C 247.255 202.773,246.800 203.057,246.800 203.266 C 246.800 203.474,245.997 204.000,245.017 204.434 C 244.036 204.868,243.133 205.385,243.011 205.582 C 242.889 205.780,242.116 206.161,241.294 206.429 C 240.472 206.697,239.390 207.235,238.888 207.625 C 238.387 208.015,237.276 208.452,236.420 208.597 C 235.563 208.741,234.770 209.101,234.657 209.396 C 234.544 209.691,233.404 210.147,232.125 210.408 C 230.846 210.669,229.530 211.121,229.200 211.413 C 228.870 211.704,227.340 212.150,225.800 212.404 C 224.260 212.658,222.460 213.102,221.800 213.391 C 217.414 215.314,192.415 215.552,187.400 213.718 C 186.520 213.397,184.471 212.884,182.847 212.578 C 181.223 212.273,179.495 211.761,179.006 211.441 C 178.517 211.120,177.416 210.731,176.558 210.575 C 175.701 210.419,174.191 209.866,173.203 209.346 C 172.215 208.826,171.114 208.400,170.757 208.400 C 170.400 208.400,169.679 208.066,169.154 207.658 C 168.629 207.250,167.539 206.701,166.732 206.438 C 165.925 206.174,165.055 205.707,164.800 205.400 C 164.545 205.093,163.720 204.638,162.968 204.389 C 162.216 204.141,161.600 203.780,161.600 203.588 C 161.600 203.395,160.790 202.879,159.800 202.441 C 158.810 202.003,158.000 201.484,158.000 201.287 C 158.000 201.090,157.557 200.727,157.016 200.480 C 156.474 200.233,155.709 199.753,155.316 199.413 C 154.922 199.072,153.340 197.777,151.800 196.535 C 146.429 192.201,137.600 182.667,137.600 181.199 C 137.600 180.966,137.322 180.668,136.983 180.538 C 136.644 180.408,135.969 179.588,135.483 178.716 C 134.997 177.845,134.302 176.594,133.937 175.938 C 133.572 175.282,133.015 174.442,132.699 174.072 C 131.990 173.244,129.200 167.561,129.200 166.945 C 129.200 166.699,128.950 166.290,128.644 166.037 C 128.339 165.783,127.882 164.755,127.629 163.751 C 127.377 162.747,126.924 161.537,126.625 161.063 C 126.325 160.588,125.882 159.246,125.640 158.080 C 125.398 156.914,124.933 155.445,124.607 154.814 C 124.282 154.184,123.901 152.618,123.762 151.334 C 123.623 150.051,123.131 147.560,122.669 145.800 C 121.421 141.041,121.421 124.959,122.669 120.200 C 123.131 118.440,123.618 115.987,123.752 114.749 C 123.886 113.510,124.353 111.710,124.789 110.749 C 125.225 109.787,125.586 108.543,125.591 107.985 C 125.596 107.426,125.964 106.256,126.410 105.385 C 126.855 104.513,127.413 103.086,127.648 102.214 C 127.884 101.342,128.420 100.193,128.839 99.660 C 129.257 99.128,129.600 98.461,129.600 98.178 C 129.600 97.432,132.344 92.144,133.024 91.580 C 133.341 91.317,133.603 90.899,133.606 90.651 C 133.609 90.403,134.245 89.300,135.017 88.200 C 135.790 87.100,136.731 85.750,137.107 85.200 C 141.480 78.818,149.671 70.575,155.790 66.400 C 156.596 65.850,157.764 64.995,158.385 64.500 C 159.007 64.005,159.660 63.600,159.836 63.600 C 160.125 63.600,161.493 62.761,164.400 60.801 C 164.950 60.430,166.061 59.909,166.868 59.643 C 167.675 59.377,168.543 58.910,168.796 58.605 C 169.048 58.301,169.812 57.929,170.493 57.779 C 171.174 57.630,172.539 57.078,173.525 56.554 C 174.512 56.029,175.700 55.600,176.165 55.600 C 176.631 55.600,177.673 55.246,178.481 54.813 C 179.288 54.380,181.011 53.855,182.309 53.646 C 183.607 53.437,185.342 52.984,186.164 52.641 C 187.003 52.290,190.061 51.826,193.130 51.583 C 196.138 51.345,198.780 51.073,199.000 50.980 C 199.647 50.704,210.599 51.105,215.766 51.594 M195.100 92.413 C 192.886 92.581,190.593 92.997,189.796 93.375 C 189.024 93.742,187.269 94.237,185.896 94.477 C 184.523 94.716,182.990 95.232,182.488 95.623 C 181.987 96.014,180.872 96.453,180.011 96.598 C 179.150 96.744,178.235 97.117,177.976 97.428 C 177.718 97.740,176.769 98.193,175.867 98.436 C 174.966 98.678,173.808 99.207,173.295 99.611 C 172.782 100.014,171.831 100.461,171.181 100.604 C 170.532 100.747,170.000 101.032,170.000 101.238 C 170.000 101.444,169.325 101.921,168.500 102.298 C 167.675 102.674,166.491 103.391,165.869 103.891 C 165.247 104.391,164.510 104.800,164.231 104.800 C 163.952 104.800,163.402 105.155,163.009 105.590 C 162.616 106.024,161.952 106.488,161.534 106.621 C 161.116 106.754,160.339 107.253,159.806 107.731 C 157.601 109.711,156.053 110.800,155.445 110.800 C 155.090 110.800,154.800 111.064,154.800 111.386 C 154.800 111.708,154.395 112.185,153.900 112.446 C 152.808 113.020,152.917 112.920,145.108 120.569 C 137.336 128.181,136.121 131.486,139.685 135.317 C 141.807 137.597,142.800 138.838,142.800 139.207 C 142.800 139.423,143.064 139.600,143.386 139.600 C 143.708 139.600,144.164 139.958,144.398 140.397 C 144.816 141.177,151.096 147.600,151.442 147.600 C 151.538 147.600,152.504 148.455,153.587 149.500 C 154.671 150.545,156.422 152.024,157.479 152.786 C 158.535 153.549,160.289 154.899,161.375 155.786 C 162.461 156.674,163.652 157.580,164.022 157.800 C 164.392 158.020,165.213 158.544,165.847 158.964 C 169.297 161.251,169.872 161.600,170.184 161.600 C 170.371 161.600,171.114 162.050,171.836 162.600 C 172.557 163.150,173.394 163.600,173.696 163.600 C 173.998 163.600,174.855 164.050,175.600 164.600 C 176.345 165.150,177.235 165.601,177.578 165.601 C 177.920 165.602,178.785 165.960,179.500 166.396 C 180.216 166.832,181.656 167.397,182.700 167.651 C 183.745 167.905,184.891 168.364,185.247 168.670 C 185.602 168.976,187.042 169.404,188.447 169.619 C 189.851 169.835,191.810 170.323,192.800 170.705 C 195.833 171.876,212.898 171.726,216.287 170.500 C 217.655 170.005,219.278 169.600,219.893 169.600 C 220.509 169.600,221.681 169.242,222.498 168.803 C 223.315 168.365,224.822 167.819,225.847 167.590 C 226.871 167.360,228.159 166.818,228.709 166.386 C 229.258 165.954,229.939 165.600,230.222 165.600 C 230.673 165.600,231.864 165.013,237.703 161.911 C 238.417 161.533,239.360 160.936,239.800 160.586 C 240.240 160.236,241.590 159.334,242.800 158.581 C 244.010 157.829,245.360 156.937,245.800 156.600 C 246.545 156.029,248.588 154.454,251.372 152.305 C 252.017 151.807,252.937 150.995,253.418 150.500 C 253.899 150.005,254.417 149.600,254.571 149.600 C 254.798 149.600,264.686 139.730,266.592 137.600 C 271.060 132.607,271.405 129.158,267.824 125.265 C 265.314 122.537,259.497 116.819,256.973 114.600 C 255.721 113.500,254.263 112.195,253.731 111.700 C 253.199 111.205,252.590 110.800,252.378 110.800 C 252.166 110.800,251.433 110.265,250.750 109.612 C 250.066 108.959,249.168 108.317,248.753 108.185 C 248.339 108.054,248.000 107.775,248.000 107.567 C 248.000 107.358,247.370 106.887,246.600 106.519 C 245.830 106.152,245.200 105.704,245.200 105.523 C 245.200 105.342,244.494 104.911,243.631 104.566 C 242.768 104.220,241.972 103.705,241.863 103.420 C 241.754 103.136,241.167 102.778,240.559 102.625 C 239.951 102.473,238.933 101.910,238.296 101.374 C 237.660 100.838,236.820 100.400,236.431 100.400 C 236.042 100.400,235.401 100.044,235.007 99.608 C 234.613 99.172,233.683 98.702,232.942 98.563 C 232.200 98.424,231.190 97.999,230.697 97.618 C 230.203 97.238,228.900 96.705,227.800 96.433 C 226.700 96.162,225.528 95.694,225.195 95.394 C 224.862 95.094,223.446 94.664,222.047 94.439 C 220.648 94.213,219.091 93.759,218.587 93.428 C 216.787 92.249,204.341 91.711,195.100 92.413 M211.551 103.601 C 213.895 103.812,216.088 104.228,216.589 104.556 C 217.076 104.875,218.523 105.330,219.805 105.567 C 221.086 105.804,222.419 106.251,222.767 106.562 C 223.115 106.872,224.204 107.340,225.186 107.601 C 226.168 107.863,227.407 108.420,227.940 108.839 C 228.472 109.257,229.209 109.600,229.576 109.600 C 229.944 109.600,230.855 110.050,231.600 110.600 C 232.345 111.150,233.178 111.600,233.449 111.600 C 233.721 111.600,234.192 111.849,234.497 112.154 C 234.801 112.458,235.804 113.092,236.725 113.562 C 237.646 114.032,238.400 114.580,238.400 114.781 C 238.400 114.982,238.805 115.271,239.300 115.424 C 239.795 115.576,240.470 115.950,240.800 116.254 C 241.130 116.557,242.325 117.479,243.455 118.303 C 244.586 119.126,246.446 120.610,247.589 121.600 C 256.955 129.709,257.555 130.481,255.832 132.204 C 255.328 132.708,254.799 133.425,254.656 133.798 C 254.513 134.171,254.054 134.566,253.635 134.675 C 253.216 134.784,252.781 135.231,252.667 135.667 C 252.553 136.103,252.103 136.553,251.667 136.667 C 251.231 136.781,250.781 137.231,250.667 137.667 C 250.553 138.103,250.092 138.555,249.643 138.673 C 249.194 138.790,248.718 139.227,248.586 139.643 C 248.454 140.059,248.205 140.400,248.032 140.400 C 247.860 140.400,247.172 140.895,246.503 141.500 C 245.835 142.105,244.773 143.021,244.144 143.536 C 243.515 144.050,242.383 144.995,241.628 145.636 C 240.873 146.276,240.025 146.800,239.742 146.800 C 239.459 146.800,239.047 147.139,238.825 147.554 C 238.603 147.969,237.966 148.422,237.411 148.562 C 236.855 148.701,236.400 149.002,236.400 149.230 C 236.400 149.458,235.590 150.003,234.600 150.441 C 233.610 150.879,232.800 151.395,232.800 151.588 C 232.800 151.780,232.184 152.141,231.432 152.389 C 230.680 152.638,229.855 153.093,229.600 153.400 C 229.345 153.707,228.475 154.174,227.668 154.438 C 226.861 154.701,225.797 155.230,225.303 155.613 C 224.810 155.996,223.730 156.435,222.903 156.589 C 222.077 156.742,221.118 157.120,220.774 157.429 C 220.430 157.737,218.900 158.246,217.374 158.559 C 215.848 158.872,213.790 159.429,212.800 159.798 C 210.235 160.752,195.896 160.550,194.353 159.538 C 193.798 159.173,192.319 158.747,191.066 158.591 C 189.814 158.434,188.386 157.994,187.894 157.611 C 187.403 157.229,186.343 156.795,185.541 156.647 C 184.738 156.500,183.644 156.035,183.109 155.614 C 182.574 155.194,181.611 154.725,180.968 154.572 C 180.326 154.420,179.440 153.972,179.000 153.577 C 178.560 153.182,177.692 152.733,177.072 152.579 C 176.451 152.425,175.733 151.962,175.476 151.550 C 175.218 151.137,174.716 150.800,174.359 150.800 C 173.723 150.800,171.496 149.292,169.686 147.636 C 169.183 147.176,168.601 146.800,168.391 146.800 C 168.182 146.800,166.793 145.783,165.305 144.541 C 158.649 138.982,151.600 131.904,151.600 130.779 C 151.600 129.857,154.355 126.941,158.572 123.400 C 159.620 122.520,160.991 121.350,161.619 120.800 C 162.247 120.250,163.496 119.260,164.394 118.600 C 165.291 117.940,166.541 116.995,167.171 116.500 C 167.800 116.005,168.492 115.600,168.709 115.600 C 168.925 115.600,169.337 115.317,169.624 114.971 C 169.911 114.625,170.852 113.950,171.713 113.471 C 172.575 112.992,174.117 112.125,175.140 111.544 C 178.219 109.795,182.581 107.601,183.004 107.587 C 183.222 107.581,184.300 107.132,185.400 106.591 C 186.500 106.050,187.850 105.602,188.400 105.595 C 188.950 105.588,190.210 105.211,191.200 104.758 C 194.167 103.398,203.448 102.871,211.551 103.601 " stroke="none" fill="#f7f76d" fill-rule="evenodd"></path><path id="path1" d="M190.000 53.631 C 189.220 54.037,187.184 54.484,185.400 54.643 C 183.291 54.830,181.859 55.177,181.200 55.660 C 180.650 56.064,179.300 56.509,178.200 56.650 C 177.100 56.790,175.838 57.233,175.396 57.633 C 174.953 58.033,173.783 58.488,172.796 58.644 C 171.782 58.804,170.777 59.241,170.489 59.648 C 170.207 60.044,169.307 60.493,168.489 60.645 C 167.670 60.797,166.770 61.247,166.489 61.645 C 166.207 62.043,165.347 62.486,164.578 62.631 C 163.808 62.775,163.003 63.220,162.790 63.619 C 162.576 64.019,161.996 64.473,161.500 64.628 C 161.005 64.783,160.091 65.335,159.469 65.855 C 158.847 66.375,157.992 66.800,157.569 66.800 C 157.146 66.800,156.800 67.065,156.800 67.390 C 156.800 67.714,156.260 68.259,155.600 68.600 C 154.940 68.941,154.400 69.402,154.400 69.623 C 154.400 69.844,154.085 70.138,153.700 70.276 C 152.541 70.692,144.143 78.863,141.600 82.049 C 141.050 82.738,140.195 83.737,139.700 84.269 C 139.205 84.801,138.800 85.409,138.800 85.621 C 138.800 85.832,138.359 86.389,137.820 86.858 C 137.281 87.326,136.726 88.227,136.587 88.858 C 136.448 89.490,135.990 90.191,135.567 90.417 C 135.145 90.643,134.800 91.120,134.800 91.476 C 134.800 91.833,134.350 92.714,133.800 93.436 C 133.250 94.157,132.800 95.015,132.800 95.343 C 132.800 95.670,132.376 96.447,131.858 97.069 C 131.339 97.691,130.791 98.876,130.639 99.702 C 130.487 100.527,130.035 101.517,129.633 101.902 C 129.231 102.286,128.780 103.442,128.631 104.472 C 128.482 105.501,128.036 106.761,127.640 107.272 C 127.244 107.782,126.803 109.228,126.658 110.485 C 126.395 112.781,125.710 114.800,125.194 114.800 C 125.042 114.800,124.792 116.897,124.639 119.461 C 124.485 122.025,124.080 125.580,123.738 127.361 C 122.952 131.448,122.950 134.541,123.730 138.600 C 124.068 140.360,124.475 143.870,124.635 146.400 C 124.856 149.904,125.101 151.238,125.661 152.000 C 126.088 152.581,126.507 154.073,126.662 155.564 C 126.833 157.218,127.183 158.383,127.648 158.848 C 128.044 159.244,128.488 160.468,128.633 161.567 C 128.788 162.731,129.209 163.846,129.641 164.237 C 130.050 164.607,130.500 165.560,130.642 166.355 C 130.783 167.150,131.223 168.160,131.620 168.600 C 132.016 169.040,132.467 169.910,132.622 170.534 C 132.777 171.157,133.330 172.094,133.852 172.615 C 134.373 173.137,134.800 174.022,134.800 174.582 C 134.800 175.185,135.027 175.600,135.357 175.600 C 135.663 175.600,136.204 176.326,136.559 177.213 C 136.914 178.101,137.466 178.927,137.787 179.050 C 138.107 179.173,138.491 179.662,138.640 180.137 C 138.789 180.612,139.291 181.383,139.756 181.851 C 140.220 182.319,141.050 183.241,141.600 183.900 C 144.851 187.795,147.780 190.846,150.600 193.275 C 152.360 194.792,154.160 196.359,154.600 196.758 C 155.040 197.157,155.715 197.594,156.100 197.729 C 156.485 197.864,156.800 198.251,156.800 198.587 C 156.800 198.924,157.122 199.200,157.515 199.200 C 157.908 199.200,158.853 199.733,159.615 200.384 C 160.377 201.035,161.309 201.575,161.686 201.584 C 162.063 201.593,162.553 201.939,162.775 202.353 C 162.997 202.768,163.808 203.225,164.578 203.369 C 165.347 203.514,166.213 203.969,166.502 204.382 C 166.791 204.794,167.701 205.258,168.523 205.412 C 169.346 205.566,170.241 206.009,170.511 206.395 C 170.782 206.781,171.762 207.225,172.690 207.381 C 173.617 207.538,174.794 207.995,175.304 208.396 C 175.814 208.797,177.125 209.252,178.216 209.406 C 179.307 209.560,180.769 210.011,181.464 210.408 C 182.159 210.805,184.269 211.319,186.153 211.549 C 188.037 211.780,190.168 212.288,190.889 212.679 C 192.879 213.758,215.653 213.761,217.250 212.683 C 217.889 212.251,219.763 211.801,222.041 211.531 C 224.360 211.257,226.166 210.819,226.791 210.380 C 227.346 209.991,228.693 209.549,229.784 209.399 C 230.875 209.249,232.193 208.792,232.712 208.383 C 233.231 207.975,234.442 207.523,235.401 207.379 C 236.361 207.235,237.239 206.876,237.352 206.581 C 237.465 206.286,238.328 205.814,239.269 205.532 C 240.211 205.250,241.306 204.694,241.703 204.297 C 242.100 203.900,242.966 203.467,243.627 203.335 C 244.288 203.202,245.008 202.758,245.228 202.347 C 245.448 201.936,245.913 201.600,246.261 201.600 C 246.609 201.600,247.509 201.060,248.261 200.400 C 249.013 199.740,249.885 199.200,250.200 199.200 C 250.514 199.200,250.965 198.840,251.200 198.400 C 251.435 197.960,251.853 197.600,252.128 197.600 C 252.829 197.600,256.671 194.180,261.544 189.219 C 267.097 183.566,267.600 183.007,267.600 182.487 C 267.600 182.241,267.858 181.895,268.173 181.719 C 268.899 181.313,270.589 178.981,271.342 177.349 C 271.659 176.661,272.112 175.978,272.348 175.832 C 272.584 175.686,273.132 174.764,273.566 173.783 C 274.000 172.803,274.537 172.000,274.759 172.000 C 274.982 172.000,275.280 171.382,275.421 170.626 C 275.563 169.871,276.018 168.946,276.432 168.571 C 276.846 168.197,277.300 167.240,277.442 166.445 C 277.583 165.650,278.021 164.640,278.415 164.200 C 278.809 163.760,279.258 162.543,279.412 161.495 C 279.566 160.448,280.011 159.186,280.400 158.691 C 280.789 158.196,281.299 156.561,281.533 155.057 C 281.768 153.553,282.220 151.924,282.538 151.438 C 282.857 150.952,283.231 149.125,283.370 147.377 C 283.510 145.630,283.922 141.655,284.286 138.544 C 284.901 133.288,284.902 132.510,284.290 127.544 C 283.928 124.605,283.515 120.535,283.373 118.500 C 283.231 116.465,282.968 114.800,282.789 114.800 C 282.366 114.800,281.737 112.728,281.394 110.208 C 281.245 109.112,280.803 107.762,280.410 107.208 C 280.018 106.654,279.564 105.400,279.401 104.423 C 279.237 103.446,278.860 102.403,278.562 102.105 C 278.265 101.808,277.824 100.831,277.583 99.935 C 277.341 99.039,276.797 97.934,276.372 97.478 C 275.947 97.022,275.600 96.347,275.600 95.979 C 275.600 95.610,275.235 94.844,274.789 94.277 C 274.344 93.711,273.711 92.606,273.384 91.823 C 273.057 91.041,272.631 90.400,272.438 90.400 C 272.245 90.400,271.812 89.725,271.477 88.900 C 271.141 88.075,270.492 87.087,270.033 86.704 C 269.575 86.321,269.200 85.779,269.200 85.500 C 269.200 85.221,268.840 84.768,268.400 84.493 C 267.960 84.218,267.600 83.803,267.600 83.571 C 267.600 83.069,266.930 82.321,261.520 76.782 C 256.704 71.851,253.673 69.144,252.231 68.487 C 251.664 68.229,251.200 67.743,251.200 67.409 C 251.200 67.062,250.848 66.800,250.382 66.800 C 249.932 66.800,249.115 66.352,248.568 65.804 C 248.020 65.256,247.123 64.696,246.575 64.558 C 246.027 64.421,245.409 63.990,245.200 63.601 C 244.992 63.211,244.189 62.774,243.416 62.629 C 242.642 62.484,241.834 62.037,241.619 61.636 C 241.390 61.207,240.574 60.802,239.636 60.652 C 238.760 60.512,237.809 60.067,237.522 59.663 C 237.222 59.241,236.235 58.807,235.204 58.644 C 234.217 58.488,233.047 58.033,232.604 57.633 C 232.162 57.233,230.900 56.790,229.800 56.650 C 228.700 56.509,227.350 56.064,226.800 55.660 C 226.141 55.177,224.710 54.830,222.600 54.643 C 220.802 54.484,218.687 54.018,217.774 53.580 C 215.386 52.435,192.222 52.477,190.000 53.631 M213.000 90.516 C 213.880 90.870,216.096 91.331,217.926 91.541 C 219.799 91.756,221.545 92.182,221.926 92.518 C 222.296 92.846,223.542 93.240,224.692 93.393 C 225.843 93.547,227.203 94.002,227.714 94.404 C 228.225 94.805,229.333 95.264,230.176 95.422 C 231.020 95.580,232.027 96.027,232.414 96.414 C 232.802 96.802,233.695 97.245,234.400 97.400 C 235.105 97.555,235.997 97.997,236.383 98.383 C 236.769 98.769,237.593 99.212,238.215 99.368 C 238.837 99.524,239.867 100.090,240.504 100.626 C 241.140 101.162,241.873 101.600,242.131 101.600 C 242.389 101.601,243.123 102.051,243.762 102.600 C 244.401 103.150,245.156 103.600,245.440 103.600 C 245.723 103.600,246.191 103.915,246.481 104.300 C 246.770 104.685,247.478 105.270,248.055 105.600 C 250.022 106.726,252.198 108.315,253.750 109.758 C 254.603 110.551,255.386 111.200,255.490 111.200 C 256.500 111.200,270.800 125.120,270.800 126.103 C 270.800 126.307,271.160 126.931,271.600 127.491 C 273.368 129.739,272.660 133.001,269.700 136.249 C 269.205 136.792,268.800 137.404,268.800 137.609 C 268.800 137.814,268.350 138.276,267.800 138.637 C 267.250 138.997,266.800 139.450,266.800 139.642 C 266.800 140.130,258.204 148.800,257.721 148.800 C 257.505 148.800,257.123 149.250,256.873 149.800 C 256.622 150.350,256.164 150.800,255.855 150.800 C 255.545 150.800,254.997 151.250,254.637 151.800 C 254.276 152.350,253.814 152.800,253.609 152.800 C 253.404 152.800,252.801 153.205,252.269 153.700 C 249.833 155.966,246.009 158.800,245.388 158.800 C 245.112 158.800,244.781 159.072,244.654 159.403 C 244.527 159.735,243.922 160.223,243.311 160.488 C 242.700 160.752,241.691 161.381,241.069 161.884 C 240.447 162.388,239.691 162.800,239.387 162.800 C 239.084 162.800,238.386 163.250,237.836 163.800 C 237.286 164.350,236.421 164.800,235.914 164.800 C 235.407 164.800,234.769 165.158,234.496 165.595 C 234.194 166.078,233.356 166.493,232.365 166.652 C 231.467 166.796,230.642 167.145,230.534 167.429 C 230.305 168.024,228.296 168.800,226.983 168.800 C 226.489 168.800,225.986 169.059,225.865 169.375 C 225.620 170.013,223.213 170.794,221.484 170.798 C 220.870 170.799,219.860 171.175,219.240 171.634 C 218.326 172.309,217.209 172.530,213.356 172.799 C 210.740 172.981,207.627 173.339,206.439 173.594 C 204.825 173.941,203.711 173.945,202.039 173.610 C 200.807 173.364,197.653 173.000,195.028 172.803 C 191.364 172.527,190.017 172.267,189.226 171.682 C 188.656 171.261,187.246 170.829,186.072 170.717 C 184.868 170.601,183.484 170.170,182.874 169.722 C 182.283 169.288,181.080 168.818,180.200 168.678 C 179.320 168.539,178.301 168.059,177.936 167.612 C 177.571 167.165,176.819 166.800,176.267 166.800 C 175.714 166.800,174.753 166.377,174.131 165.861 C 173.509 165.344,172.499 164.799,171.887 164.650 C 171.274 164.500,170.469 164.023,170.098 163.589 C 169.726 163.155,169.094 162.800,168.693 162.800 C 168.292 162.800,167.545 162.381,167.034 161.870 C 166.522 161.358,165.540 160.707,164.852 160.421 C 164.163 160.136,163.600 159.655,163.600 159.351 C 163.600 159.048,163.271 158.800,162.870 158.800 C 162.468 158.800,161.717 158.350,161.200 157.800 C 160.683 157.250,160.050 156.800,159.792 156.800 C 159.535 156.800,158.982 156.422,158.563 155.959 C 158.144 155.497,157.306 154.862,156.701 154.549 C 156.095 154.236,155.600 153.734,155.600 153.433 C 155.600 153.133,155.162 152.777,154.627 152.642 C 154.091 152.508,153.545 152.058,153.413 151.642 C 153.281 151.227,152.806 150.790,152.357 150.673 C 151.908 150.555,151.443 150.086,151.324 149.630 C 151.204 149.173,150.862 148.800,150.563 148.800 C 150.263 148.800,149.724 148.350,149.363 147.800 C 149.003 147.250,148.455 146.800,148.145 146.800 C 147.836 146.800,147.378 146.350,147.127 145.800 C 146.877 145.250,146.427 144.800,146.127 144.800 C 145.828 144.800,145.378 144.350,145.127 143.800 C 144.877 143.250,144.443 142.800,144.163 142.800 C 143.883 142.800,143.545 142.456,143.411 142.036 C 143.278 141.615,142.726 140.981,142.184 140.627 C 141.643 140.272,141.200 139.716,141.200 139.391 C 141.200 139.066,140.935 138.800,140.610 138.800 C 140.286 138.800,139.741 138.260,139.400 137.600 C 139.059 136.940,138.606 136.400,138.395 136.400 C 138.184 136.400,137.734 135.815,137.395 135.100 C 137.056 134.385,136.516 133.350,136.195 132.800 C 135.359 131.367,135.454 129.094,136.400 127.891 C 136.840 127.331,137.200 126.665,137.200 126.410 C 137.200 125.934,148.915 114.193,151.179 112.400 C 151.874 111.850,152.858 110.995,153.367 110.500 C 153.876 110.005,154.486 109.600,154.723 109.600 C 154.960 109.600,155.390 109.285,155.679 108.900 C 156.389 107.951,159.150 105.888,160.500 105.298 C 161.105 105.033,161.600 104.655,161.600 104.457 C 161.600 104.259,162.127 103.879,162.771 103.612 C 163.415 103.345,164.244 102.794,164.613 102.386 C 164.981 101.979,165.789 101.534,166.408 101.398 C 167.027 101.262,167.626 100.910,167.739 100.616 C 167.852 100.321,168.632 99.860,169.472 99.591 C 170.312 99.322,171.360 98.777,171.800 98.380 C 172.240 97.984,173.140 97.529,173.800 97.369 C 174.460 97.209,175.403 96.766,175.897 96.384 C 176.390 96.003,177.460 95.565,178.275 95.412 C 179.090 95.259,180.170 94.810,180.674 94.413 C 181.178 94.017,182.414 93.569,183.420 93.418 C 184.427 93.267,185.824 92.814,186.525 92.412 C 187.282 91.978,189.099 91.567,191.000 91.399 C 192.760 91.244,194.560 90.920,195.000 90.680 C 197.255 89.450,210.061 89.333,213.000 90.516 M195.257 105.596 C 194.518 106.008,192.722 106.473,191.264 106.629 C 189.648 106.802,188.207 107.215,187.569 107.686 C 186.993 108.112,185.730 108.565,184.761 108.693 C 183.730 108.829,182.788 109.225,182.489 109.647 C 182.207 110.044,181.307 110.493,180.489 110.645 C 179.670 110.797,178.765 111.254,178.478 111.660 C 178.191 112.065,177.262 112.509,176.413 112.644 C 175.420 112.803,174.804 113.140,174.687 113.589 C 174.587 113.973,174.039 114.404,173.469 114.547 C 172.900 114.690,171.950 115.255,171.359 115.803 C 170.767 116.352,169.962 116.800,169.569 116.800 C 169.175 116.800,168.740 117.160,168.600 117.600 C 168.460 118.040,168.115 118.400,167.832 118.400 C 167.550 118.400,166.754 118.940,166.063 119.600 C 165.372 120.260,164.540 120.800,164.213 120.800 C 163.886 120.800,163.324 121.250,162.963 121.800 C 162.603 122.350,161.990 122.800,161.601 122.800 C 161.212 122.800,160.796 123.173,160.676 123.630 C 160.557 124.086,160.092 124.555,159.643 124.673 C 159.194 124.790,158.718 125.227,158.586 125.643 C 158.454 126.059,158.179 126.400,157.975 126.400 C 157.458 126.400,154.000 129.860,154.000 130.377 C 154.000 130.610,153.685 130.811,153.300 130.825 C 152.782 130.844,152.844 130.949,153.538 131.226 C 154.053 131.433,154.568 131.956,154.681 132.388 C 154.794 132.820,155.218 133.279,155.623 133.407 C 156.028 133.536,156.462 133.964,156.587 134.360 C 156.713 134.755,157.262 135.282,157.808 135.531 C 158.353 135.779,158.800 136.228,158.800 136.527 C 158.800 136.827,159.250 137.277,159.800 137.527 C 160.350 137.778,160.800 138.257,160.800 138.591 C 160.800 138.926,161.038 139.200,161.328 139.200 C 161.618 139.200,162.237 139.605,162.702 140.100 C 163.167 140.595,164.302 141.540,165.222 142.200 C 166.143 142.860,167.373 143.870,167.956 144.444 C 168.539 145.018,169.417 145.615,169.908 145.771 C 170.399 145.927,170.800 146.312,170.800 146.627 C 170.800 146.942,171.122 147.200,171.515 147.200 C 171.908 147.200,172.853 147.733,173.615 148.384 C 174.377 149.035,175.309 149.575,175.686 149.584 C 176.063 149.593,176.552 149.936,176.772 150.347 C 176.992 150.758,177.712 151.202,178.373 151.335 C 179.034 151.467,179.922 151.922,180.347 152.347 C 180.771 152.771,181.722 153.246,182.459 153.402 C 183.197 153.559,184.160 154.007,184.600 154.399 C 185.040 154.792,186.383 155.318,187.584 155.570 C 188.785 155.822,190.052 156.285,190.400 156.600 C 190.758 156.924,192.614 157.352,194.659 157.584 C 196.653 157.810,199.053 158.266,199.993 158.597 C 202.171 159.366,205.720 159.368,208.236 158.602 C 209.316 158.274,211.815 157.805,213.788 157.562 C 216.091 157.278,217.705 156.861,218.296 156.396 C 218.801 155.998,220.098 155.552,221.178 155.403 C 222.257 155.255,223.234 154.888,223.349 154.589 C 223.464 154.290,224.332 153.824,225.279 153.554 C 226.225 153.285,227.360 152.748,227.800 152.362 C 228.240 151.975,229.140 151.527,229.800 151.365 C 230.460 151.203,231.235 150.740,231.523 150.335 C 231.810 149.931,232.280 149.600,232.568 149.600 C 232.855 149.600,233.769 149.060,234.600 148.400 C 235.431 147.740,236.312 147.200,236.559 147.200 C 236.806 147.200,237.232 146.840,237.507 146.400 C 237.782 145.960,238.199 145.600,238.433 145.600 C 238.667 145.600,240.061 144.612,241.530 143.404 C 242.998 142.196,244.697 140.801,245.305 140.304 C 245.913 139.807,248.346 137.510,250.711 135.200 C 255.443 130.579,255.355 130.970,252.319 128.111 C 252.034 127.842,251.620 127.443,251.400 127.224 C 249.834 125.665,248.317 124.400,248.013 124.400 C 247.816 124.400,247.540 124.040,247.400 123.600 C 247.260 123.160,246.901 122.800,246.602 122.800 C 246.303 122.800,245.704 122.350,245.271 121.800 C 244.839 121.250,244.278 120.800,244.024 120.800 C 243.771 120.800,243.128 120.364,242.595 119.831 C 242.062 119.298,241.260 118.746,240.812 118.604 C 240.365 118.462,239.813 117.998,239.586 117.573 C 239.358 117.148,238.922 116.800,238.617 116.800 C 238.311 116.800,237.553 116.388,236.931 115.884 C 236.309 115.381,235.300 114.752,234.689 114.488 C 234.078 114.223,233.473 113.735,233.346 113.403 C 233.219 113.072,232.697 112.800,232.188 112.800 C 231.678 112.800,230.727 112.350,230.073 111.800 C 229.419 111.250,228.587 110.800,228.222 110.800 C 227.369 110.800,225.200 109.682,225.200 109.241 C 225.200 109.055,224.293 108.783,223.184 108.636 C 222.075 108.489,220.844 108.044,220.448 107.648 C 219.985 107.185,218.819 106.832,217.186 106.662 C 215.788 106.516,213.903 106.037,212.996 105.598 C 210.597 104.437,197.336 104.435,195.257 105.596 M210.445 117.441 C 224.537 124.715,219.983 145.896,204.308 145.985 C 187.154 146.082,183.991 122.116,200.400 116.373 C 202.561 115.617,208.039 116.199,210.445 117.441 M299.443 121.491 C 298.640 122.293,299.229 125.112,300.240 125.306 C 301.224 125.494,301.266 125.436,301.002 124.252 C 300.848 123.564,300.710 122.812,300.694 122.582 C 300.656 121.999,299.736 121.197,299.443 121.491 M300.148 139.922 C 299.054 140.078,298.660 142.268,299.036 146.089 C 299.293 148.699,299.340 148.797,300.029 148.173 C 301.537 146.809,301.639 139.709,300.148 139.922 M298.134 153.923 C 297.015 154.083,296.711 154.934,297.025 157.028 C 297.254 158.553,298.517 159.444,298.633 158.162 C 298.651 157.963,298.800 157.327,298.964 156.748 C 299.471 154.964,299.124 153.782,298.134 153.923 M296.109 161.314 C 295.012 161.807,294.655 162.830,295.013 164.457 L 295.285 165.697 296.270 164.711 C 297.638 163.343,297.512 160.683,296.109 161.314 M293.196 167.300 C 293.193 167.575,293.080 168.475,292.943 169.300 C 292.710 170.708,292.755 170.795,293.681 170.718 C 294.223 170.673,294.697 170.448,294.734 170.218 C 294.771 169.988,294.911 169.125,295.044 168.300 C 295.273 166.888,295.226 166.800,294.244 166.800 C 293.670 166.800,293.198 167.025,293.196 167.300 M292.000 172.390 C 290.515 172.749,290.316 174.800,291.766 174.800 C 292.514 174.800,292.850 174.539,293.031 173.817 C 293.379 172.432,293.148 172.113,292.000 172.390 M289.084 176.650 C 288.265 177.468,288.810 178.852,289.900 178.727 C 290.773 178.626,291.000 178.394,291.000 177.600 C 291.000 176.609,289.746 175.987,289.084 176.650 M288.200 180.327 C 287.072 180.539,286.840 180.843,286.733 182.249 C 286.670 183.079,286.436 183.470,286.019 183.442 C 285.604 183.414,285.276 183.959,285.023 185.100 C 284.713 186.500,284.483 186.800,283.723 186.800 C 282.960 186.800,282.800 187.012,282.800 188.027 C 282.800 189.034,282.669 189.212,282.068 189.022 C 281.458 188.828,281.275 189.106,280.968 190.695 C 280.672 192.229,280.425 192.625,279.700 192.728 C 279.049 192.820,278.800 193.124,278.800 193.828 C 278.800 194.598,278.592 194.800,277.800 194.800 C 277.000 194.800,276.800 195.000,276.800 195.800 C 276.800 196.600,276.600 196.800,275.800 196.800 C 275.000 196.800,274.800 197.000,274.800 197.800 C 274.800 198.600,274.600 198.800,273.800 198.800 C 273.000 198.800,272.800 199.000,272.800 199.800 C 272.800 200.600,272.600 200.800,271.800 200.800 C 271.000 200.800,270.800 201.000,270.800 201.800 C 270.800 202.600,270.600 202.800,269.800 202.800 C 269.000 202.800,268.800 203.000,268.800 203.800 C 268.800 204.600,268.600 204.800,267.800 204.800 C 267.000 204.800,266.800 205.000,266.800 205.800 C 266.800 206.600,266.600 206.800,265.800 206.800 C 265.001 206.800,264.800 207.000,264.800 207.797 C 264.800 208.842,266.538 209.088,266.650 208.060 C 266.678 207.807,266.723 207.420,266.750 207.200 C 266.778 206.980,267.164 206.800,267.609 206.800 C 268.083 206.800,268.606 206.387,268.873 205.800 C 269.123 205.250,269.656 204.800,270.057 204.800 C 270.495 204.800,270.882 204.411,271.030 203.823 C 271.179 203.228,271.613 202.798,272.138 202.723 C 272.670 202.647,273.048 202.265,273.125 201.725 C 273.202 201.179,273.579 200.802,274.125 200.725 C 274.670 200.647,275.047 200.270,275.125 199.725 C 275.202 199.179,275.579 198.802,276.125 198.725 C 276.664 198.648,277.047 198.270,277.122 197.741 C 277.190 197.268,277.594 196.790,278.020 196.679 C 278.447 196.567,278.918 196.144,279.068 195.738 C 279.217 195.332,279.588 194.850,279.892 194.668 C 280.581 194.253,281.354 192.433,281.237 191.500 C 281.174 190.993,281.432 190.800,282.175 190.800 C 283.002 190.800,283.200 190.607,283.200 189.800 C 283.200 189.063,283.413 188.800,284.010 188.800 C 284.589 188.800,284.888 188.460,285.058 187.609 C 285.189 186.954,285.590 186.189,285.948 185.909 C 286.541 185.446,286.546 185.472,286.000 186.200 C 285.448 186.935,285.455 186.957,286.076 186.471 C 286.448 186.180,286.654 185.685,286.533 185.371 C 286.413 185.057,286.514 184.800,286.757 184.800 C 287.001 184.800,287.200 184.350,287.200 183.800 C 287.200 183.188,287.428 182.800,287.786 182.800 C 288.446 182.800,289.316 181.415,289.125 180.668 C 289.056 180.398,288.640 180.245,288.200 180.327 M262.832 209.767 C 262.814 210.408,262.851 210.858,262.913 210.767 C 262.975 210.675,263.290 210.250,263.613 209.823 C 263.936 209.396,263.990 209.172,263.734 209.326 C 263.478 209.479,263.177 209.379,263.066 209.102 C 262.954 208.826,262.849 209.125,262.832 209.767 M259.128 211.700 C 259.036 212.344,258.688 212.636,257.900 212.727 C 257.036 212.826,256.800 213.062,256.800 213.827 C 256.800 215.073,257.335 215.064,258.329 213.800 C 258.761 213.250,259.368 212.800,259.678 212.800 C 260.383 212.800,261.200 212.006,261.200 211.320 C 261.200 210.356,259.268 210.710,259.128 211.700 M252.800 215.800 C 252.800 216.587,253.003 216.800,253.753 216.800 C 254.453 216.800,254.758 216.533,254.898 215.800 C 255.066 214.922,254.950 214.800,253.945 214.800 C 252.990 214.800,252.800 214.966,252.800 215.800 " stroke="none" fill="#2c0c84" fill-rule="evenodd"></path><path id="path2" d="M200.400 116.373 C 186.476 121.246,185.604 139.425,199.030 144.938 C 213.931 151.058,226.190 130.556,214.055 119.809 C 210.616 116.763,204.025 115.105,200.400 116.373 M285.943 185.731 C 285.329 186.577,285.332 186.640,285.993 186.689 C 286.490 186.727,286.700 186.454,286.700 185.771 C 286.700 185.237,286.678 184.806,286.650 184.813 C 286.623 184.819,286.304 185.233,285.943 185.731 M281.262 191.500 C 281.324 191.885,281.079 192.785,280.718 193.500 C 280.357 194.215,280.224 194.800,280.423 194.800 C 280.622 194.800,280.893 194.367,281.026 193.838 C 281.159 193.309,281.613 192.785,282.034 192.675 C 283.113 192.393,283.063 190.800,281.975 190.800 C 281.413 190.800,281.185 191.023,281.262 191.500 M263.200 209.224 C 263.200 209.457,263.425 209.512,263.700 209.347 C 264.031 209.148,264.012 209.279,263.643 209.733 C 262.951 210.586,263.363 211.095,264.190 210.408 C 265.052 209.693,264.947 208.800,264.000 208.800 C 263.560 208.800,263.200 208.991,263.200 209.224 " stroke="none" fill="#050407" fill-rule="evenodd"></path><path id="path3" d="M192.009 52.426 C 190.363 52.630,188.203 53.055,187.209 53.371 C 186.214 53.687,184.590 54.067,183.600 54.215 C 182.610 54.364,180.990 54.817,180.000 55.223 C 179.010 55.629,177.406 56.165,176.436 56.413 C 175.466 56.662,174.296 57.100,173.836 57.388 C 173.376 57.676,172.280 58.134,171.400 58.406 C 170.520 58.678,169.530 59.119,169.200 59.385 C 168.870 59.651,167.970 60.111,167.200 60.407 C 166.430 60.704,165.371 61.273,164.846 61.673 C 164.321 62.073,163.735 62.400,163.543 62.400 C 163.350 62.400,162.448 62.940,161.537 63.600 C 160.625 64.260,159.727 64.800,159.540 64.800 C 159.353 64.800,158.860 65.115,158.444 65.500 C 158.028 65.885,156.205 67.280,154.394 68.600 C 152.583 69.920,149.188 72.903,146.851 75.229 C 142.342 79.714,141.860 80.252,139.533 83.400 C 138.720 84.500,137.772 85.760,137.427 86.200 C 137.082 86.640,136.292 87.810,135.670 88.800 C 135.049 89.790,134.196 91.140,133.775 91.800 C 132.645 93.572,130.014 98.926,130.007 99.471 C 130.003 99.731,129.760 100.183,129.466 100.477 C 129.172 100.771,128.564 102.088,128.113 103.405 C 127.663 104.722,127.101 106.340,126.863 107.000 C 125.719 110.180,124.413 115.242,124.181 117.400 C 124.039 118.720,123.633 121.060,123.278 122.600 C 122.503 125.966,122.394 140.016,123.123 142.600 C 123.372 143.480,123.846 146.136,124.178 148.501 C 124.510 150.867,125.034 153.297,125.343 153.901 C 125.652 154.506,126.032 155.810,126.187 156.800 C 126.341 157.790,126.813 159.281,127.234 160.112 C 127.655 160.944,128.000 161.854,128.000 162.134 C 128.000 162.414,128.430 163.533,128.955 164.621 C 132.022 170.975,133.373 173.594,134.409 175.200 C 135.048 176.190,135.875 177.540,136.246 178.200 C 136.618 178.860,137.659 180.318,138.561 181.441 C 139.462 182.563,140.609 184.003,141.109 184.641 C 146.726 191.803,155.362 199.003,164.800 204.393 C 166.810 205.541,171.810 207.980,172.174 207.990 C 172.379 207.995,173.279 208.336,174.174 208.747 C 176.435 209.786,180.618 211.176,183.000 211.681 C 184.100 211.914,186.350 212.455,188.000 212.884 C 194.053 214.456,213.998 214.647,218.800 213.178 C 219.570 212.942,221.730 212.409,223.600 211.993 C 227.765 211.066,231.710 209.807,233.679 208.775 C 234.493 208.349,235.393 207.995,235.679 207.990 C 236.133 207.981,238.131 207.023,243.600 204.191 C 250.834 200.445,262.386 190.775,267.004 184.600 C 267.662 183.720,268.920 182.083,269.800 180.961 C 270.680 179.840,271.760 178.324,272.200 177.593 C 272.640 176.862,273.400 175.619,273.888 174.832 C 274.376 174.044,275.197 172.590,275.712 171.600 C 276.227 170.610,276.850 169.440,277.095 169.000 C 277.943 167.480,280.000 162.709,280.002 162.255 C 280.004 162.005,280.287 161.260,280.631 160.600 C 280.975 159.940,281.526 158.241,281.855 156.825 C 282.183 155.408,282.642 153.894,282.875 153.460 C 283.284 152.696,284.331 146.586,285.251 139.600 C 286.392 130.932,283.797 111.772,280.663 105.720 C 280.298 105.016,280.000 104.161,280.000 103.821 C 280.000 103.230,277.964 98.459,277.175 97.200 C 276.968 96.870,276.351 95.700,275.803 94.600 C 274.608 92.200,273.384 90.161,272.357 88.854 C 271.941 88.325,271.600 87.706,271.600 87.480 C 271.600 87.253,271.329 86.782,270.998 86.434 C 270.667 86.085,269.205 84.270,267.748 82.400 C 264.907 78.752,257.672 71.490,254.597 69.200 C 253.563 68.430,252.511 67.620,252.259 67.400 C 252.006 67.180,250.630 66.236,249.200 65.302 C 247.770 64.369,246.248 63.334,245.819 63.002 C 245.389 62.671,244.828 62.400,244.573 62.400 C 244.317 62.400,243.642 62.034,243.073 61.586 C 242.503 61.138,241.444 60.572,240.719 60.329 C 239.993 60.086,239.130 59.665,238.800 59.395 C 238.470 59.124,237.257 58.596,236.105 58.221 C 234.952 57.846,233.918 57.391,233.806 57.210 C 233.694 57.029,232.657 56.658,231.501 56.387 C 230.346 56.115,228.892 55.635,228.270 55.321 C 227.649 55.006,225.939 54.510,224.470 54.218 C 223.002 53.926,220.720 53.377,219.400 52.997 C 216.583 52.188,197.204 51.784,192.009 52.426 M217.774 53.580 C 218.687 54.018,220.802 54.484,222.600 54.643 C 224.710 54.830,226.141 55.177,226.800 55.660 C 227.350 56.064,228.700 56.509,229.800 56.650 C 230.900 56.790,232.162 57.233,232.604 57.633 C 233.047 58.033,234.217 58.488,235.204 58.644 C 236.235 58.807,237.222 59.241,237.522 59.663 C 237.809 60.067,238.760 60.512,239.636 60.652 C 240.574 60.802,241.390 61.207,241.619 61.636 C 241.834 62.037,242.642 62.484,243.416 62.629 C 244.189 62.774,244.992 63.211,245.200 63.601 C 245.409 63.990,246.027 64.421,246.575 64.558 C 247.123 64.696,248.020 65.256,248.568 65.804 C 249.115 66.352,249.932 66.800,250.382 66.800 C 250.848 66.800,251.200 67.062,251.200 67.409 C 251.200 67.743,251.664 68.229,252.231 68.487 C 253.673 69.144,256.704 71.851,261.520 76.782 C 266.930 82.321,267.600 83.069,267.600 83.571 C 267.600 83.803,267.960 84.218,268.400 84.493 C 268.840 84.768,269.200 85.221,269.200 85.500 C 269.200 85.779,269.575 86.321,270.033 86.704 C 270.492 87.087,271.141 88.075,271.477 88.900 C 271.812 89.725,272.245 90.400,272.438 90.400 C 272.631 90.400,273.057 91.041,273.384 91.823 C 273.711 92.606,274.344 93.711,274.789 94.277 C 275.235 94.844,275.600 95.610,275.600 95.979 C 275.600 96.347,275.947 97.022,276.372 97.478 C 276.797 97.934,277.341 99.039,277.583 99.935 C 277.824 100.831,278.265 101.808,278.562 102.105 C 278.860 102.403,279.237 103.446,279.401 104.423 C 279.564 105.400,280.018 106.654,280.410 107.208 C 280.803 107.762,281.245 109.112,281.394 110.208 C 281.737 112.728,282.366 114.800,282.789 114.800 C 282.968 114.800,283.231 116.465,283.373 118.500 C 283.515 120.535,283.928 124.605,284.290 127.544 C 284.902 132.510,284.901 133.288,284.286 138.544 C 283.922 141.655,283.510 145.630,283.370 147.377 C 283.231 149.125,282.857 150.952,282.538 151.438 C 282.220 151.924,281.768 153.553,281.533 155.057 C 281.299 156.561,280.789 158.196,280.400 158.691 C 280.011 159.186,279.566 160.448,279.412 161.495 C 279.258 162.543,278.809 163.760,278.415 164.200 C 278.021 164.640,277.583 165.650,277.442 166.445 C 277.300 167.240,276.846 168.197,276.432 168.571 C 276.018 168.946,275.563 169.871,275.421 170.626 C 275.280 171.382,274.982 172.000,274.759 172.000 C 274.537 172.000,274.000 172.803,273.566 173.783 C 273.132 174.764,272.584 175.686,272.348 175.832 C 272.112 175.978,271.659 176.661,271.342 177.349 C 270.589 178.981,268.899 181.313,268.173 181.719 C 267.858 181.895,267.600 182.241,267.600 182.487 C 267.600 183.007,267.097 183.566,261.544 189.219 C 256.671 194.180,252.829 197.600,252.128 197.600 C 251.853 197.600,251.435 197.960,251.200 198.400 C 250.965 198.840,250.514 199.200,250.200 199.200 C 249.885 199.200,249.013 199.740,248.261 200.400 C 247.509 201.060,246.609 201.600,246.261 201.600 C 245.913 201.600,245.448 201.936,245.228 202.347 C 245.008 202.758,244.288 203.202,243.627 203.335 C 242.966 203.467,242.100 203.900,241.703 204.297 C 241.306 204.694,240.211 205.250,239.269 205.532 C 238.328 205.814,237.465 206.286,237.352 206.581 C 237.239 206.876,236.361 207.235,235.401 207.379 C 234.442 207.523,233.231 207.975,232.712 208.383 C 232.193 208.792,230.875 209.249,229.784 209.399 C 228.693 209.549,227.346 209.991,226.791 210.380 C 226.166 210.819,224.360 211.257,222.041 211.531 C 219.763 211.801,217.889 212.251,217.250 212.683 C 215.653 213.761,192.879 213.758,190.889 212.679 C 190.168 212.288,188.037 211.780,186.153 211.549 C 184.269 211.319,182.159 210.805,181.464 210.408 C 180.769 210.011,179.307 209.560,178.216 209.406 C 177.125 209.252,175.814 208.797,175.304 208.396 C 174.794 207.995,173.617 207.538,172.690 207.381 C 171.762 207.225,170.782 206.781,170.511 206.395 C 170.241 206.009,169.346 205.566,168.523 205.412 C 167.701 205.258,166.791 204.794,166.502 204.382 C 166.213 203.969,165.347 203.514,164.578 203.369 C 163.808 203.225,162.997 202.768,162.775 202.353 C 162.553 201.939,162.063 201.593,161.686 201.584 C 161.309 201.575,160.377 201.035,159.615 200.384 C 158.853 199.733,157.908 199.200,157.515 199.200 C 157.122 199.200,156.800 198.924,156.800 198.587 C 156.800 198.251,156.485 197.864,156.100 197.729 C 155.715 197.594,155.040 197.157,154.600 196.758 C 154.160 196.359,152.360 194.792,150.600 193.275 C 147.780 190.846,144.851 187.795,141.600 183.900 C 141.050 183.241,140.220 182.319,139.756 181.851 C 139.291 181.383,138.789 180.612,138.640 180.137 C 138.491 179.662,138.107 179.173,137.787 179.050 C 137.466 178.927,136.914 178.101,136.559 177.213 C 136.204 176.326,135.663 175.600,135.357 175.600 C 135.027 175.600,134.800 175.185,134.800 174.582 C 134.800 174.022,134.373 173.137,133.852 172.615 C 133.330 172.094,132.777 171.157,132.622 170.534 C 132.467 169.910,132.016 169.040,131.620 168.600 C 131.223 168.160,130.783 167.150,130.642 166.355 C 130.500 165.560,130.050 164.607,129.641 164.237 C 129.209 163.846,128.788 162.731,128.633 161.567 C 128.488 160.468,128.044 159.244,127.648 158.848 C 127.183 158.383,126.833 157.218,126.662 155.564 C 126.507 154.073,126.088 152.581,125.661 152.000 C 125.101 151.238,124.856 149.904,124.635 146.400 C 124.475 143.870,124.068 140.360,123.730 138.600 C 122.950 134.541,122.952 131.448,123.738 127.361 C 124.080 125.580,124.485 122.025,124.639 119.461 C 124.792 116.897,125.042 114.800,125.194 114.800 C 125.710 114.800,126.395 112.781,126.658 110.485 C 126.803 109.228,127.244 107.782,127.640 107.272 C 128.036 106.761,128.482 105.501,128.631 104.472 C 128.780 103.442,129.231 102.286,129.633 101.902 C 130.035 101.517,130.487 100.527,130.639 99.702 C 130.791 98.876,131.339 97.691,131.858 97.069 C 132.376 96.447,132.800 95.670,132.800 95.343 C 132.800 95.015,133.250 94.157,133.800 93.436 C 134.350 92.714,134.800 91.833,134.800 91.476 C 134.800 91.120,135.145 90.643,135.567 90.417 C 135.990 90.191,136.448 89.490,136.587 88.858 C 136.726 88.227,137.281 87.326,137.820 86.858 C 138.359 86.389,138.800 85.832,138.800 85.621 C 138.800 85.409,139.205 84.801,139.700 84.269 C 140.195 83.737,141.050 82.738,141.600 82.049 C 144.143 78.863,152.541 70.692,153.700 70.276 C 154.085 70.138,154.400 69.844,154.400 69.623 C 154.400 69.402,154.940 68.941,155.600 68.600 C 156.260 68.259,156.800 67.714,156.800 67.390 C 156.800 67.065,157.146 66.800,157.569 66.800 C 157.992 66.800,158.847 66.375,159.469 65.855 C 160.091 65.335,161.005 64.783,161.500 64.628 C 161.996 64.473,162.576 64.019,162.790 63.619 C 163.003 63.220,163.808 62.775,164.578 62.631 C 165.347 62.486,166.207 62.043,166.489 61.645 C 166.770 61.247,167.670 60.797,168.489 60.645 C 169.307 60.493,170.207 60.044,170.489 59.648 C 170.777 59.241,171.782 58.804,172.796 58.644 C 173.783 58.488,174.953 58.033,175.396 57.633 C 175.838 57.233,177.100 56.790,178.200 56.650 C 179.300 56.509,180.650 56.064,181.200 55.660 C 181.859 55.177,183.291 54.830,185.400 54.643 C 187.184 54.484,189.220 54.037,190.000 53.631 C 192.222 52.477,215.386 52.435,217.774 53.580 M197.400 89.949 C 196.520 90.111,195.440 90.440,195.000 90.680 C 194.560 90.920,192.760 91.244,191.000 91.399 C 189.099 91.567,187.282 91.978,186.525 92.412 C 185.824 92.814,184.427 93.267,183.420 93.418 C 182.414 93.569,181.178 94.017,180.674 94.413 C 180.170 94.810,179.090 95.259,178.275 95.412 C 177.460 95.565,176.390 96.003,175.897 96.384 C 175.403 96.766,174.460 97.209,173.800 97.369 C 173.140 97.529,172.240 97.984,171.800 98.380 C 171.360 98.777,170.312 99.322,169.472 99.591 C 168.632 99.860,167.852 100.321,167.739 100.616 C 167.626 100.910,167.027 101.262,166.408 101.398 C 165.789 101.534,164.981 101.979,164.613 102.386 C 164.244 102.794,163.415 103.345,162.771 103.612 C 162.127 103.879,161.600 104.259,161.600 104.457 C 161.600 104.655,161.105 105.033,160.500 105.298 C 159.150 105.888,156.389 107.951,155.679 108.900 C 155.390 109.285,154.960 109.600,154.723 109.600 C 154.486 109.600,153.876 110.005,153.367 110.500 C 152.858 110.995,151.874 111.850,151.179 112.400 C 148.915 114.193,137.200 125.934,137.200 126.410 C 137.200 126.665,136.840 127.331,136.400 127.891 C 135.454 129.094,135.359 131.367,136.195 132.800 C 136.516 133.350,137.056 134.385,137.395 135.100 C 137.734 135.815,138.184 136.400,138.395 136.400 C 138.606 136.400,139.059 136.940,139.400 137.600 C 139.741 138.260,140.286 138.800,140.610 138.800 C 140.935 138.800,141.200 139.066,141.200 139.391 C 141.200 139.716,141.643 140.272,142.184 140.627 C 142.726 140.981,143.278 141.615,143.411 142.036 C 143.545 142.456,143.883 142.800,144.163 142.800 C 144.443 142.800,144.877 143.250,145.127 143.800 C 145.378 144.350,145.828 144.800,146.127 144.800 C 146.427 144.800,146.877 145.250,147.127 145.800 C 147.378 146.350,147.836 146.800,148.145 146.800 C 148.455 146.800,149.003 147.250,149.363 147.800 C 149.724 148.350,150.263 148.800,150.563 148.800 C 150.862 148.800,151.204 149.173,151.324 149.630 C 151.443 150.086,151.908 150.555,152.357 150.673 C 152.806 150.790,153.281 151.227,153.413 151.642 C 153.545 152.058,154.091 152.508,154.627 152.642 C 155.162 152.777,155.600 153.133,155.600 153.433 C 155.600 153.734,156.095 154.236,156.701 154.549 C 157.306 154.862,158.144 155.497,158.563 155.959 C 158.982 156.422,159.535 156.800,159.792 156.800 C 160.050 156.800,160.683 157.250,161.200 157.800 C 161.717 158.350,162.468 158.800,162.870 158.800 C 163.271 158.800,163.600 159.048,163.600 159.351 C 163.600 159.655,164.163 160.136,164.852 160.421 C 165.540 160.707,166.522 161.358,167.034 161.870 C 167.545 162.381,168.292 162.800,168.693 162.800 C 169.094 162.800,169.726 163.155,170.098 163.589 C 170.469 164.023,171.274 164.500,171.887 164.650 C 172.499 164.799,173.509 165.344,174.131 165.861 C 174.753 166.377,175.714 166.800,176.267 166.800 C 176.819 166.800,177.571 167.165,177.936 167.612 C 178.301 168.059,179.320 168.539,180.200 168.678 C 181.080 168.818,182.283 169.288,182.874 169.722 C 183.484 170.170,184.868 170.601,186.072 170.717 C 187.246 170.829,188.656 171.261,189.226 171.682 C 190.017 172.267,191.364 172.527,195.028 172.803 C 197.653 173.000,200.807 173.364,202.039 173.610 C 203.711 173.945,204.825 173.941,206.439 173.594 C 207.627 173.339,210.740 172.981,213.356 172.799 C 217.209 172.530,218.326 172.309,219.240 171.634 C 219.860 171.175,220.870 170.799,221.484 170.798 C 223.213 170.794,225.620 170.013,225.865 169.375 C 225.986 169.059,226.489 168.800,226.983 168.800 C 228.296 168.800,230.305 168.024,230.534 167.429 C 230.642 167.145,231.467 166.796,232.365 166.652 C 233.356 166.493,234.194 166.078,234.496 165.595 C 234.769 165.158,235.407 164.800,235.914 164.800 C 236.421 164.800,237.286 164.350,237.836 163.800 C 238.386 163.250,239.084 162.800,239.387 162.800 C 239.691 162.800,240.447 162.388,241.069 161.884 C 241.691 161.381,242.700 160.752,243.311 160.488 C 243.922 160.223,244.527 159.735,244.654 159.403 C 244.781 159.072,245.112 158.800,245.388 158.800 C 246.009 158.800,249.833 155.966,252.269 153.700 C 252.801 153.205,253.404 152.800,253.609 152.800 C 253.814 152.800,254.276 152.350,254.637 151.800 C 254.997 151.250,255.545 150.800,255.855 150.800 C 256.164 150.800,256.622 150.350,256.873 149.800 C 257.123 149.250,257.505 148.800,257.721 148.800 C 258.204 148.800,266.800 140.130,266.800 139.642 C 266.800 139.450,267.250 138.997,267.800 138.637 C 268.350 138.276,268.800 137.814,268.800 137.609 C 268.800 137.404,269.205 136.792,269.700 136.249 C 272.660 133.001,273.368 129.739,271.600 127.491 C 271.160 126.931,270.800 126.307,270.800 126.103 C 270.800 125.120,256.500 111.200,255.490 111.200 C 255.386 111.200,254.603 110.551,253.750 109.758 C 252.198 108.315,250.022 106.726,248.055 105.600 C 247.478 105.270,246.770 104.685,246.481 104.300 C 246.191 103.915,245.723 103.600,245.440 103.600 C 245.156 103.600,244.401 103.150,243.762 102.600 C 243.123 102.051,242.389 101.601,242.131 101.600 C 241.873 101.600,241.140 101.162,240.504 100.626 C 239.867 100.090,238.837 99.524,238.215 99.368 C 237.593 99.212,236.769 98.769,236.383 98.383 C 235.997 97.997,235.105 97.555,234.400 97.400 C 233.695 97.245,232.802 96.802,232.414 96.414 C 232.027 96.027,231.020 95.580,230.176 95.422 C 229.333 95.264,228.225 94.805,227.714 94.404 C 227.203 94.002,225.843 93.547,224.692 93.393 C 223.542 93.240,222.296 92.846,221.926 92.518 C 221.545 92.182,219.799 91.756,217.926 91.541 C 216.096 91.331,213.880 90.870,213.000 90.516 C 211.231 89.804,200.337 89.408,197.400 89.949 M214.015 91.604 C 216.773 92.008,219.743 92.617,220.615 92.958 C 221.487 93.299,222.920 93.745,223.800 93.951 C 225.960 94.454,228.940 95.699,234.200 98.292 C 240.886 101.588,241.397 101.893,249.600 107.480 C 259.090 113.944,271.600 127.012,271.600 130.463 C 271.600 134.366,260.062 147.091,249.000 155.387 C 246.396 157.341,245.087 158.302,243.916 159.122 C 241.269 160.975,238.143 162.866,235.800 164.030 C 234.480 164.687,233.130 165.386,232.800 165.585 C 231.396 166.429,226.890 168.400,226.362 168.400 C 226.047 168.400,225.156 168.739,224.383 169.153 C 223.610 169.567,221.931 170.124,220.651 170.389 C 219.371 170.655,217.746 171.114,217.039 171.409 C 213.303 172.970,195.062 172.956,191.312 171.389 C 190.589 171.087,188.873 170.625,187.499 170.363 C 186.124 170.100,184.800 169.730,184.556 169.541 C 184.313 169.351,183.143 168.852,181.956 168.433 C 179.080 167.415,173.118 164.570,170.600 163.014 C 168.036 161.429,166.333 160.357,164.700 159.300 C 162.937 158.159,157.862 154.461,156.784 153.531 C 146.674 144.811,139.302 137.087,137.540 133.366 L 136.387 130.933 137.078 128.766 C 138.592 124.021,154.717 109.430,166.000 102.596 C 170.828 99.671,177.971 96.010,178.893 95.987 C 179.172 95.981,180.300 95.532,181.400 94.991 C 182.500 94.450,183.719 94.006,184.110 94.004 C 184.500 94.002,185.850 93.629,187.110 93.175 C 189.240 92.408,193.769 91.572,200.000 90.795 C 203.197 90.397,207.448 90.642,214.015 91.604 M196.892 104.413 C 195.293 104.615,193.662 104.953,193.268 105.164 C 192.873 105.375,191.330 105.831,189.839 106.176 C 188.348 106.522,186.744 107.074,186.275 107.403 C 185.806 107.731,185.144 108.000,184.805 108.000 C 184.466 108.000,183.094 108.534,181.758 109.186 C 180.421 109.838,178.894 110.567,178.364 110.806 C 177.834 111.045,176.680 111.675,175.800 112.206 C 174.920 112.736,173.491 113.558,172.625 114.031 C 171.759 114.505,170.819 115.097,170.537 115.346 C 170.255 115.596,169.100 116.430,167.969 117.200 C 162.852 120.685,153.823 128.570,152.774 130.470 C 152.156 131.589,161.063 140.244,168.200 145.461 C 170.400 147.069,172.400 148.551,172.644 148.755 C 172.888 148.959,173.788 149.513,174.644 149.986 C 175.500 150.460,177.100 151.377,178.200 152.026 C 179.300 152.674,180.650 153.409,181.200 153.658 C 181.750 153.907,182.920 154.443,183.800 154.850 C 186.783 156.227,190.630 157.588,192.619 157.970 C 193.708 158.179,195.673 158.631,196.984 158.975 C 202.904 160.527,212.244 159.466,221.200 156.224 C 223.948 155.229,231.859 151.252,232.410 150.588 C 232.678 150.265,233.121 150.000,233.394 150.000 C 233.667 150.000,234.537 149.505,235.329 148.900 C 236.120 148.295,237.421 147.350,238.221 146.800 C 244.945 142.176,255.850 131.818,255.420 130.463 C 255.142 129.587,246.809 121.792,244.400 120.155 C 243.630 119.631,242.436 118.797,241.747 118.301 C 240.476 117.388,236.954 115.025,234.400 113.373 C 232.350 112.048,225.193 108.400,224.642 108.400 C 224.382 108.400,223.456 108.032,222.585 107.582 C 221.713 107.133,220.100 106.579,219.000 106.352 C 217.900 106.126,215.930 105.582,214.622 105.143 C 211.836 104.210,201.777 103.796,196.892 104.413 M212.996 105.598 C 213.903 106.037,215.788 106.516,217.186 106.662 C 218.819 106.832,219.985 107.185,220.448 107.648 C 220.844 108.044,222.075 108.489,223.184 108.636 C 224.293 108.783,225.200 109.055,225.200 109.241 C 225.200 109.682,227.369 110.800,228.222 110.800 C 228.587 110.800,229.419 111.250,230.073 111.800 C 230.727 112.350,231.678 112.800,232.188 112.800 C 232.697 112.800,233.219 113.072,233.346 113.403 C 233.473 113.735,234.078 114.223,234.689 114.488 C 235.300 114.752,236.309 115.381,236.931 115.884 C 237.553 116.388,238.311 116.800,238.617 116.800 C 238.922 116.800,239.358 117.148,239.586 117.573 C 239.813 117.998,240.365 118.462,240.812 118.604 C 241.260 118.746,242.062 119.298,242.595 119.831 C 243.128 120.364,243.771 120.800,244.024 120.800 C 244.278 120.800,244.839 121.250,245.271 121.800 C 245.704 122.350,246.303 122.800,246.602 122.800 C 246.901 122.800,247.260 123.160,247.400 123.600 C 247.540 124.040,247.816 124.400,248.013 124.400 C 248.317 124.400,249.834 125.665,251.400 127.224 C 251.620 127.443,252.034 127.842,252.319 128.111 C 255.355 130.970,255.443 130.579,250.711 135.200 C 248.346 137.510,245.913 139.807,245.305 140.304 C 244.697 140.801,242.998 142.196,241.530 143.404 C 240.061 144.612,238.667 145.600,238.433 145.600 C 238.199 145.600,237.782 145.960,237.507 146.400 C 237.232 146.840,236.806 147.200,236.559 147.200 C 236.312 147.200,235.431 147.740,234.600 148.400 C 233.769 149.060,232.855 149.600,232.568 149.600 C 232.280 149.600,231.810 149.931,231.523 150.335 C 231.235 150.740,230.460 151.203,229.800 151.365 C 229.140 151.527,228.240 151.975,227.800 152.362 C 227.360 152.748,226.225 153.285,225.279 153.554 C 224.332 153.824,223.464 154.290,223.349 154.589 C 223.234 154.888,222.257 155.255,221.178 155.403 C 220.098 155.552,218.801 155.998,218.296 156.396 C 217.705 156.861,216.091 157.278,213.788 157.562 C 211.815 157.805,209.316 158.274,208.236 158.602 C 205.720 159.368,202.171 159.366,199.993 158.597 C 199.053 158.266,196.653 157.810,194.659 157.584 C 192.614 157.352,190.758 156.924,190.400 156.600 C 190.052 156.285,188.785 155.822,187.584 155.570 C 186.383 155.318,185.040 154.792,184.600 154.399 C 184.160 154.007,183.197 153.559,182.459 153.402 C 181.722 153.246,180.771 152.771,180.347 152.347 C 179.922 151.922,179.034 151.467,178.373 151.335 C 177.712 151.202,176.992 150.758,176.772 150.347 C 176.552 149.936,176.063 149.593,175.686 149.584 C 175.309 149.575,174.377 149.035,173.615 148.384 C 172.853 147.733,171.908 147.200,171.515 147.200 C 171.122 147.200,170.800 146.942,170.800 146.627 C 170.800 146.312,170.399 145.927,169.908 145.771 C 169.417 145.615,168.539 145.018,167.956 144.444 C 167.373 143.870,166.143 142.860,165.222 142.200 C 164.302 141.540,163.167 140.595,162.702 140.100 C 162.237 139.605,161.618 139.200,161.328 139.200 C 161.038 139.200,160.800 138.926,160.800 138.591 C 160.800 138.257,160.350 137.778,159.800 137.527 C 159.250 137.277,158.800 136.827,158.800 136.527 C 158.800 136.228,158.353 135.779,157.808 135.531 C 157.262 135.282,156.713 134.755,156.587 134.360 C 156.462 133.964,156.028 133.536,155.623 133.407 C 155.218 133.279,154.794 132.820,154.681 132.388 C 154.568 131.956,154.053 131.433,153.538 131.226 C 152.844 130.949,152.782 130.844,153.300 130.825 C 153.685 130.811,154.000 130.610,154.000 130.377 C 154.000 129.860,157.458 126.400,157.975 126.400 C 158.179 126.400,158.454 126.059,158.586 125.643 C 158.718 125.227,159.194 124.790,159.643 124.673 C 160.092 124.555,160.557 124.086,160.676 123.630 C 160.796 123.173,161.212 122.800,161.601 122.800 C 161.990 122.800,162.603 122.350,162.963 121.800 C 163.324 121.250,163.886 120.800,164.213 120.800 C 164.540 120.800,165.372 120.260,166.063 119.600 C 166.754 118.940,167.550 118.400,167.832 118.400 C 168.115 118.400,168.460 118.040,168.600 117.600 C 168.740 117.160,169.175 116.800,169.569 116.800 C 169.962 116.800,170.767 116.352,171.359 115.803 C 171.950 115.255,172.900 114.690,173.469 114.547 C 174.039 114.404,174.587 113.973,174.687 113.589 C 174.804 113.140,175.420 112.803,176.413 112.644 C 177.262 112.509,178.191 112.065,178.478 111.660 C 178.765 111.254,179.670 110.797,180.489 110.645 C 181.307 110.493,182.207 110.044,182.489 109.647 C 182.788 109.225,183.730 108.829,184.761 108.693 C 185.730 108.565,186.993 108.112,187.569 107.686 C 188.207 107.215,189.648 106.802,191.264 106.629 C 192.722 106.473,194.518 106.008,195.257 105.596 C 197.336 104.435,210.597 104.437,212.996 105.598 M298.870 123.650 C 298.764 126.447,299.164 127.855,300.198 128.326 C 301.078 128.727,301.113 128.677,301.058 127.072 C 301.010 125.677,300.855 125.379,300.122 125.275 C 299.407 125.173,299.215 124.838,299.092 123.475 L 298.940 121.800 298.870 123.650 M300.653 134.500 C 300.466 135.105,300.085 135.600,299.807 135.600 C 299.172 135.600,298.782 137.478,298.860 140.150 C 298.894 141.305,298.993 141.720,299.087 141.100 C 299.203 140.330,299.489 140.000,300.039 140.000 C 301.095 140.000,301.261 139.408,301.116 136.160 C 301.017 133.935,300.927 133.613,300.653 134.500 M298.893 146.800 C 298.893 147.570,298.975 147.885,299.076 147.500 C 299.176 147.115,299.176 146.485,299.076 146.100 C 298.975 145.715,298.893 146.030,298.893 146.800 M297.700 152.012 C 297.021 152.285,296.802 152.696,296.806 153.687 C 296.809 154.409,296.944 154.796,297.106 154.546 C 297.268 154.297,297.760 154.025,298.200 153.943 C 298.727 153.844,299.043 153.418,299.127 152.697 C 299.262 151.524,299.104 151.448,297.700 152.012 M296.000 159.592 C 295.221 159.779,294.972 160.125,294.871 161.158 C 294.768 162.227,294.846 162.396,295.271 162.029 C 295.562 161.778,296.135 161.342,296.543 161.060 C 297.629 160.312,297.251 159.293,296.000 159.592 M294.000 165.556 C 293.162 165.787,292.991 166.088,292.945 167.416 C 292.911 168.392,292.960 168.578,293.072 167.900 C 293.212 167.051,293.475 166.800,294.227 166.800 C 294.933 166.800,295.200 166.581,295.200 166.000 C 295.200 165.560,295.155 165.218,295.100 165.240 C 295.045 165.262,294.550 165.404,294.000 165.556 M291.700 170.514 C 290.349 171.127,290.458 172.754,291.833 172.492 C 292.989 172.271,293.435 171.536,292.933 170.677 C 292.680 170.242,292.385 170.203,291.700 170.514 M290.440 173.900 C 290.413 174.501,290.149 174.800,289.645 174.800 C 289.055 174.800,288.831 175.202,288.614 176.646 C 288.420 177.942,288.122 178.548,287.614 178.680 C 287.131 178.807,286.806 179.402,286.634 180.475 C 286.453 181.608,286.145 182.142,285.589 182.287 C 285.089 182.418,284.800 182.834,284.800 183.424 C 284.800 183.936,284.444 184.604,284.008 184.909 C 283.572 185.215,282.940 186.125,282.603 186.932 C 282.265 187.739,281.736 188.400,281.426 188.400 C 281.117 188.400,280.745 188.940,280.600 189.600 C 280.419 190.425,280.097 190.800,279.568 190.800 C 279.017 190.800,278.800 191.080,278.800 191.791 C 278.800 192.407,278.421 193.030,277.795 193.440 C 277.243 193.802,276.689 194.503,276.565 194.999 C 276.440 195.494,275.902 196.098,275.369 196.341 C 274.836 196.584,274.400 197.061,274.400 197.401 C 274.400 197.741,273.950 198.191,273.400 198.400 C 272.805 198.626,272.400 199.096,272.400 199.561 C 272.400 199.990,272.085 200.424,271.700 200.524 C 271.173 200.662,271.223 200.719,271.900 200.754 C 272.606 200.790,272.800 200.584,272.800 199.800 C 272.800 199.000,273.000 198.800,273.800 198.800 C 274.600 198.800,274.800 198.600,274.800 197.800 C 274.800 197.000,275.000 196.800,275.800 196.800 C 276.600 196.800,276.800 196.600,276.800 195.800 C 276.800 195.000,277.000 194.800,277.800 194.800 C 278.592 194.800,278.800 194.598,278.800 193.828 C 278.800 193.124,279.049 192.820,279.700 192.728 C 280.425 192.625,280.672 192.229,280.968 190.695 C 281.275 189.106,281.458 188.828,282.068 189.022 C 282.669 189.212,282.800 189.034,282.800 188.027 C 282.800 187.012,282.960 186.800,283.723 186.800 C 284.483 186.800,284.713 186.500,285.023 185.100 C 285.276 183.959,285.604 183.414,286.019 183.442 C 286.436 183.470,286.670 183.079,286.733 182.249 C 286.840 180.842,287.073 180.538,288.200 180.331 C 288.859 180.210,289.000 179.869,289.000 178.392 C 289.000 176.700,289.061 176.601,290.100 176.616 C 291.283 176.633,291.447 176.021,290.800 174.000 C 290.493 173.041,290.478 173.037,290.440 173.900 M270.400 201.571 C 270.400 201.995,270.085 202.424,269.700 202.524 C 269.173 202.662,269.223 202.719,269.900 202.754 C 270.606 202.790,270.800 202.584,270.800 201.800 C 270.800 201.250,270.710 200.800,270.600 200.800 C 270.490 200.800,270.400 201.147,270.400 201.571 M268.400 203.571 C 268.400 203.995,268.085 204.424,267.700 204.524 C 267.173 204.662,267.223 204.719,267.900 204.754 C 268.606 204.790,268.800 204.584,268.800 203.800 C 268.800 203.250,268.710 202.800,268.600 202.800 C 268.490 202.800,268.400 203.147,268.400 203.571 M266.400 205.380 C 266.400 205.699,266.085 206.144,265.700 206.368 C 265.075 206.732,265.096 206.777,265.900 206.788 C 266.597 206.797,266.800 206.574,266.800 205.800 C 266.800 205.250,266.710 204.800,266.600 204.800 C 266.490 204.800,266.400 205.061,266.400 205.380 M264.000 207.567 C 264.000 207.988,263.775 208.424,263.500 208.535 C 263.225 208.646,263.405 208.751,263.900 208.768 C 264.602 208.793,264.800 208.580,264.800 207.800 C 264.800 207.250,264.620 206.800,264.400 206.800 C 264.180 206.800,264.000 207.145,264.000 207.567 M260.702 209.800 C 260.534 210.678,260.650 210.800,261.655 210.800 C 262.610 210.800,262.800 210.634,262.800 209.800 C 262.800 209.013,262.597 208.800,261.847 208.800 C 261.147 208.800,260.842 209.067,260.702 209.800 M258.400 211.824 C 258.400 212.404,258.573 212.740,258.800 212.600 C 259.020 212.464,259.200 212.003,259.200 211.576 C 259.200 211.149,259.020 210.800,258.800 210.800 C 258.580 210.800,258.400 211.261,258.400 211.824 M256.000 213.167 C 256.000 213.369,255.891 213.819,255.757 214.167 C 255.598 214.582,255.735 214.800,256.157 214.800 C 256.576 214.800,256.800 214.452,256.800 213.800 C 256.800 213.250,256.620 212.800,256.400 212.800 C 256.180 212.800,256.000 212.965,256.000 213.167 M248.800 217.800 C 248.800 218.600,249.000 218.800,249.800 218.800 C 250.600 218.800,250.800 218.600,250.800 217.800 C 250.800 217.000,250.600 216.800,249.800 216.800 C 249.000 216.800,248.800 217.000,248.800 217.800 M244.800 219.800 C 244.800 220.600,245.000 220.800,245.800 220.800 C 246.600 220.800,246.800 220.600,246.800 219.800 C 246.800 219.000,246.600 218.800,245.800 218.800 C 245.000 218.800,244.800 219.000,244.800 219.800 M240.800 221.800 C 240.800 222.865,241.526 223.114,242.320 222.320 C 243.114 221.526,242.865 220.800,241.800 220.800 C 241.000 220.800,240.800 221.000,240.800 221.800 " stroke="none" fill="#6d5581" fill-rule="evenodd"></path><path id="path4" d="M199.000 50.980 C 198.780 51.073,196.138 51.345,193.130 51.583 C 190.061 51.826,187.003 52.290,186.164 52.641 C 185.342 52.984,183.607 53.437,182.309 53.646 C 181.011 53.855,179.288 54.380,178.481 54.813 C 177.673 55.246,176.631 55.600,176.165 55.600 C 175.700 55.600,174.512 56.029,173.525 56.554 C 172.539 57.078,171.174 57.630,170.493 57.779 C 169.812 57.929,169.048 58.301,168.796 58.605 C 168.543 58.910,167.675 59.377,166.868 59.643 C 166.061 59.909,164.950 60.430,164.400 60.801 C 161.493 62.761,160.125 63.600,159.836 63.600 C 159.660 63.600,159.007 64.005,158.385 64.500 C 157.764 64.995,156.596 65.850,155.790 66.400 C 149.671 70.575,141.480 78.818,137.107 85.200 C 136.731 85.750,135.790 87.100,135.017 88.200 C 134.245 89.300,133.609 90.403,133.606 90.651 C 133.603 90.899,133.341 91.317,133.024 91.580 C 132.344 92.144,129.600 97.432,129.600 98.178 C 129.600 98.461,129.257 99.128,128.839 99.660 C 128.420 100.193,127.884 101.342,127.648 102.214 C 127.413 103.086,126.855 104.513,126.410 105.385 C 125.964 106.256,125.596 107.426,125.591 107.985 C 125.586 108.543,125.225 109.787,124.789 110.749 C 124.353 111.710,123.886 113.510,123.752 114.749 C 123.618 115.987,123.131 118.440,122.669 120.200 C 121.421 124.959,121.421 141.041,122.669 145.800 C 123.131 147.560,123.623 150.051,123.762 151.334 C 123.901 152.618,124.282 154.184,124.607 154.814 C 124.933 155.445,125.398 156.914,125.640 158.080 C 125.882 159.246,126.325 160.588,126.625 161.063 C 126.924 161.537,127.377 162.747,127.629 163.751 C 127.882 164.755,128.339 165.783,128.644 166.037 C 128.950 166.290,129.200 166.699,129.200 166.945 C 129.200 167.561,131.990 173.244,132.699 174.072 C 133.015 174.442,133.572 175.282,133.937 175.938 C 134.302 176.594,134.997 177.845,135.483 178.716 C 135.969 179.588,136.644 180.408,136.983 180.538 C 137.322 180.668,137.600 180.966,137.600 181.199 C 137.600 182.667,146.429 192.201,151.800 196.535 C 153.340 197.777,154.922 199.072,155.316 199.413 C 155.709 199.753,156.474 200.233,157.016 200.480 C 157.557 200.727,158.000 201.090,158.000 201.287 C 158.000 201.484,158.810 202.003,159.800 202.441 C 160.790 202.879,161.600 203.395,161.600 203.588 C 161.600 203.780,162.216 204.141,162.968 204.389 C 163.720 204.638,164.545 205.093,164.800 205.400 C 165.055 205.707,165.925 206.174,166.732 206.438 C 167.539 206.701,168.629 207.250,169.154 207.658 C 169.679 208.066,170.400 208.400,170.757 208.400 C 171.114 208.400,172.215 208.826,173.203 209.346 C 174.191 209.866,175.701 210.419,176.558 210.575 C 177.416 210.731,178.517 211.120,179.006 211.441 C 179.495 211.761,181.223 212.273,182.847 212.578 C 184.471 212.884,186.520 213.397,187.400 213.718 C 192.415 215.552,217.414 215.314,221.800 213.391 C 222.460 213.102,224.260 212.658,225.800 212.404 C 227.340 212.150,228.870 211.704,229.200 211.413 C 229.530 211.121,230.846 210.669,232.125 210.408 C 233.404 210.147,234.544 209.691,234.657 209.396 C 234.770 209.101,235.563 208.741,236.420 208.597 C 237.276 208.452,238.387 208.015,238.888 207.625 C 239.390 207.235,240.472 206.697,241.294 206.429 C 242.116 206.161,242.889 205.780,243.011 205.582 C 243.133 205.385,244.036 204.868,245.017 204.434 C 245.997 204.000,246.800 203.474,246.800 203.266 C 246.800 203.057,247.255 202.773,247.810 202.633 C 248.366 202.494,249.162 202.038,249.580 201.620 C 249.998 201.202,250.758 200.642,251.270 200.375 C 251.781 200.108,252.470 199.648,252.800 199.354 C 253.130 199.059,255.020 197.494,257.000 195.875 C 261.570 192.138,265.920 187.619,269.283 183.115 C 269.659 182.612,270.385 181.660,270.896 181.000 C 272.071 179.483,274.034 176.505,274.719 175.200 C 275.008 174.650,275.773 173.300,276.419 172.200 C 277.065 171.100,277.865 169.570,278.198 168.800 C 278.530 168.030,279.162 166.734,279.601 165.921 C 280.040 165.107,280.401 164.117,280.401 163.721 C 280.402 163.324,280.772 162.394,281.224 161.654 C 281.675 160.914,282.231 159.297,282.459 158.062 C 282.688 156.827,283.149 155.285,283.485 154.636 C 283.821 153.986,284.263 152.093,284.469 150.428 C 284.674 148.762,285.147 146.410,285.521 145.200 C 286.083 143.379,286.200 141.276,286.200 133.000 C 286.200 124.724,286.083 122.621,285.521 120.800 C 285.147 119.590,284.674 117.238,284.469 115.572 C 284.263 113.907,283.826 112.017,283.496 111.372 C 283.167 110.728,282.698 109.260,282.455 108.111 C 282.212 106.962,281.650 105.344,281.207 104.517 C 280.763 103.689,280.400 102.694,280.400 102.306 C 280.400 101.689,279.638 99.992,277.747 96.400 C 277.457 95.850,276.848 94.680,276.393 93.800 C 275.610 92.285,274.945 91.167,272.931 87.976 C 272.080 86.628,271.793 86.232,269.900 83.800 C 269.386 83.140,268.682 82.150,268.334 81.600 C 267.120 79.676,260.696 73.177,257.064 70.198 C 251.336 65.500,248.137 63.200,247.330 63.200 C 247.038 63.200,246.800 63.028,246.800 62.819 C 246.800 62.609,246.013 62.089,245.052 61.664 C 244.090 61.239,243.188 60.703,243.046 60.475 C 242.905 60.246,242.116 59.842,241.294 59.579 C 240.472 59.315,239.530 58.874,239.200 58.600 C 238.870 58.326,237.955 57.894,237.167 57.642 C 236.379 57.389,235.036 56.826,234.183 56.391 C 233.329 55.956,232.302 55.600,231.899 55.600 C 231.497 55.600,230.491 55.254,229.662 54.832 C 228.834 54.409,227.047 53.862,225.690 53.616 C 224.334 53.370,222.618 52.916,221.878 52.607 C 219.698 51.696,200.521 50.332,199.000 50.980 M219.400 52.997 C 220.720 53.377,223.002 53.926,224.470 54.218 C 225.939 54.510,227.649 55.006,228.270 55.321 C 228.892 55.635,230.346 56.115,231.501 56.387 C 232.657 56.658,233.694 57.029,233.806 57.210 C 233.918 57.391,234.952 57.846,236.105 58.221 C 237.257 58.596,238.470 59.124,238.800 59.395 C 239.130 59.665,239.993 60.086,240.719 60.329 C 241.444 60.572,242.503 61.138,243.073 61.586 C 243.642 62.034,244.317 62.400,244.573 62.400 C 244.828 62.400,245.389 62.671,245.819 63.002 C 246.248 63.334,247.770 64.369,249.200 65.302 C 250.630 66.236,252.006 67.180,252.259 67.400 C 252.511 67.620,253.563 68.430,254.597 69.200 C 257.672 71.490,264.907 78.752,267.748 82.400 C 269.205 84.270,270.667 86.085,270.998 86.434 C 271.329 86.782,271.600 87.253,271.600 87.480 C 271.600 87.706,271.941 88.325,272.357 88.854 C 273.384 90.161,274.608 92.200,275.803 94.600 C 276.351 95.700,276.968 96.870,277.175 97.200 C 277.964 98.459,280.000 103.230,280.000 103.821 C 280.000 104.161,280.298 105.016,280.663 105.720 C 283.797 111.772,286.392 130.932,285.251 139.600 C 284.331 146.586,283.284 152.696,282.875 153.460 C 282.642 153.894,282.183 155.408,281.855 156.825 C 281.526 158.241,280.975 159.940,280.631 160.600 C 280.287 161.260,280.004 162.005,280.002 162.255 C 280.000 162.709,277.943 167.480,277.095 169.000 C 276.850 169.440,276.227 170.610,275.712 171.600 C 275.197 172.590,274.376 174.044,273.888 174.832 C 273.400 175.619,272.640 176.862,272.200 177.593 C 271.760 178.324,270.680 179.840,269.800 180.961 C 268.920 182.083,267.662 183.720,267.004 184.600 C 262.386 190.775,250.834 200.445,243.600 204.191 C 238.131 207.023,236.133 207.981,235.679 207.990 C 235.393 207.995,234.493 208.349,233.679 208.775 C 231.710 209.807,227.765 211.066,223.600 211.993 C 221.730 212.409,219.570 212.942,218.800 213.178 C 213.998 214.647,194.053 214.456,188.000 212.884 C 186.350 212.455,184.100 211.914,183.000 211.681 C 180.618 211.176,176.435 209.786,174.174 208.747 C 173.279 208.336,172.379 207.995,172.174 207.990 C 171.220 207.964,163.832 203.969,159.200 200.975 C 153.067 197.010,145.335 190.030,141.109 184.641 C 140.609 184.003,139.462 182.563,138.561 181.441 C 137.659 180.318,136.618 178.860,136.246 178.200 C 135.875 177.540,135.048 176.190,134.409 175.200 C 133.373 173.594,132.022 170.975,128.955 164.621 C 128.430 163.533,128.000 162.414,128.000 162.134 C 128.000 161.854,127.655 160.944,127.234 160.112 C 126.813 159.281,126.341 157.790,126.187 156.800 C 126.032 155.810,125.652 154.506,125.343 153.901 C 125.034 153.297,124.510 150.867,124.178 148.501 C 123.846 146.136,123.372 143.480,123.123 142.600 C 122.394 140.016,122.503 125.966,123.278 122.600 C 123.633 121.060,124.039 118.720,124.181 117.400 C 124.413 115.242,125.719 110.180,126.863 107.000 C 127.101 106.340,127.663 104.722,128.113 103.405 C 128.564 102.088,129.172 100.771,129.466 100.477 C 129.760 100.183,130.003 99.731,130.007 99.471 C 130.014 98.926,132.645 93.572,133.775 91.800 C 134.196 91.140,135.049 89.790,135.670 88.800 C 136.292 87.810,137.082 86.640,137.427 86.200 C 137.772 85.760,138.720 84.500,139.533 83.400 C 141.860 80.252,142.342 79.714,146.851 75.229 C 149.188 72.903,152.583 69.920,154.394 68.600 C 156.205 67.280,158.028 65.885,158.444 65.500 C 158.860 65.115,159.353 64.800,159.540 64.800 C 159.727 64.800,160.625 64.260,161.537 63.600 C 162.448 62.940,163.350 62.400,163.543 62.400 C 163.735 62.400,164.321 62.073,164.846 61.673 C 165.371 61.273,166.430 60.704,167.200 60.407 C 167.970 60.111,168.870 59.651,169.200 59.385 C 169.530 59.119,170.520 58.678,171.400 58.406 C 172.280 58.134,173.376 57.676,173.836 57.388 C 174.296 57.100,175.466 56.662,176.436 56.413 C 177.406 56.165,179.010 55.629,180.000 55.223 C 180.990 54.817,182.610 54.364,183.600 54.215 C 184.590 54.067,186.214 53.687,187.209 53.371 C 191.973 51.858,214.526 51.596,219.400 52.997 M200.000 90.795 C 193.769 91.572,189.240 92.408,187.110 93.175 C 185.850 93.629,184.500 94.002,184.110 94.004 C 183.719 94.006,182.500 94.450,181.400 94.991 C 180.300 95.532,179.172 95.981,178.893 95.987 C 177.971 96.010,170.828 99.671,166.000 102.596 C 154.717 109.430,138.592 124.021,137.078 128.766 L 136.387 130.933 137.540 133.366 C 139.302 137.087,146.674 144.811,156.784 153.531 C 157.862 154.461,162.937 158.159,164.700 159.300 C 166.333 160.357,168.036 161.429,170.600 163.014 C 173.118 164.570,179.080 167.415,181.956 168.433 C 183.143 168.852,184.313 169.351,184.556 169.541 C 184.800 169.730,186.124 170.100,187.499 170.363 C 188.873 170.625,190.589 171.087,191.312 171.389 C 195.062 172.956,213.303 172.970,217.039 171.409 C 217.746 171.114,219.371 170.655,220.651 170.389 C 221.931 170.124,223.610 169.567,224.383 169.153 C 225.156 168.739,226.047 168.400,226.362 168.400 C 226.890 168.400,231.396 166.429,232.800 165.585 C 233.130 165.386,234.480 164.687,235.800 164.030 C 238.143 162.866,241.269 160.975,243.916 159.122 C 245.087 158.302,246.396 157.341,249.000 155.387 C 260.062 147.091,271.600 134.366,271.600 130.463 C 271.600 127.012,259.090 113.944,249.600 107.480 C 241.397 101.893,240.886 101.588,234.200 98.292 C 228.940 95.699,225.960 94.454,223.800 93.951 C 222.920 93.745,221.487 93.299,220.615 92.958 C 217.037 91.559,204.457 90.240,200.000 90.795 M212.577 92.414 C 215.809 92.676,218.005 93.047,218.587 93.428 C 219.091 93.759,220.648 94.213,222.047 94.439 C 223.446 94.664,224.862 95.094,225.195 95.394 C 225.528 95.694,226.700 96.162,227.800 96.433 C 228.900 96.705,230.203 97.238,230.697 97.618 C 231.190 97.999,232.200 98.424,232.942 98.563 C 233.683 98.702,234.613 99.172,235.007 99.608 C 235.401 100.044,236.042 100.400,236.431 100.400 C 236.820 100.400,237.660 100.838,238.296 101.374 C 238.933 101.910,239.951 102.473,240.559 102.625 C 241.167 102.778,241.754 103.136,241.863 103.420 C 241.972 103.705,242.768 104.220,243.631 104.566 C 244.494 104.911,245.200 105.342,245.200 105.523 C 245.200 105.704,245.830 106.152,246.600 106.519 C 247.370 106.887,248.000 107.358,248.000 107.567 C 248.000 107.775,248.339 108.054,248.753 108.185 C 249.168 108.317,250.066 108.959,250.750 109.612 C 251.433 110.265,252.166 110.800,252.378 110.800 C 252.590 110.800,253.199 111.205,253.731 111.700 C 254.263 112.195,255.721 113.500,256.973 114.600 C 259.497 116.819,265.314 122.537,267.824 125.265 C 271.405 129.158,271.060 132.607,266.592 137.600 C 264.686 139.730,254.798 149.600,254.571 149.600 C 254.417 149.600,253.899 150.005,253.418 150.500 C 252.937 150.995,252.017 151.807,251.372 152.305 C 248.588 154.454,246.545 156.029,245.800 156.600 C 245.360 156.937,244.010 157.829,242.800 158.581 C 241.590 159.334,240.240 160.236,239.800 160.586 C 239.360 160.936,238.417 161.533,237.703 161.911 C 231.864 165.013,230.673 165.600,230.222 165.600 C 229.939 165.600,229.258 165.954,228.709 166.386 C 228.159 166.818,226.871 167.360,225.847 167.590 C 224.822 167.819,223.315 168.365,222.498 168.803 C 221.681 169.242,220.509 169.600,219.893 169.600 C 219.278 169.600,217.655 170.005,216.287 170.500 C 212.898 171.726,195.833 171.876,192.800 170.705 C 191.810 170.323,189.851 169.835,188.447 169.619 C 187.042 169.404,185.602 168.976,185.247 168.670 C 184.891 168.364,183.745 167.905,182.700 167.651 C 181.656 167.397,180.216 166.832,179.500 166.396 C 178.785 165.960,177.920 165.602,177.578 165.601 C 177.235 165.601,176.345 165.150,175.600 164.600 C 174.855 164.050,173.998 163.600,173.696 163.600 C 173.394 163.600,172.557 163.150,171.836 162.600 C 171.114 162.050,170.371 161.600,170.184 161.600 C 169.872 161.600,169.297 161.251,165.847 158.964 C 165.213 158.544,164.392 158.020,164.022 157.800 C 163.652 157.580,162.461 156.674,161.375 155.786 C 160.289 154.899,158.535 153.549,157.479 152.786 C 156.422 152.024,154.671 150.545,153.587 149.500 C 152.504 148.455,151.538 147.600,151.442 147.600 C 151.096 147.600,144.816 141.177,144.398 140.397 C 144.164 139.958,143.708 139.600,143.386 139.600 C 143.064 139.600,142.800 139.423,142.800 139.207 C 142.800 138.838,141.807 137.597,139.685 135.317 C 136.121 131.486,137.336 128.181,145.108 120.569 C 152.917 112.920,152.808 113.020,153.900 112.446 C 154.395 112.185,154.800 111.708,154.800 111.386 C 154.800 111.064,155.090 110.800,155.445 110.800 C 156.053 110.800,157.601 109.711,159.806 107.731 C 160.339 107.253,161.116 106.754,161.534 106.621 C 161.952 106.488,162.616 106.024,163.009 105.590 C 163.402 105.155,163.952 104.800,164.231 104.800 C 164.510 104.800,165.247 104.391,165.869 103.891 C 166.491 103.391,167.675 102.674,168.500 102.298 C 169.325 101.921,170.000 101.444,170.000 101.238 C 170.000 101.032,170.532 100.747,171.181 100.604 C 171.831 100.461,172.782 100.014,173.295 99.611 C 173.808 99.207,174.966 98.678,175.867 98.436 C 176.769 98.193,177.718 97.740,177.976 97.428 C 178.235 97.117,179.150 96.744,180.011 96.598 C 180.872 96.453,181.987 96.014,182.488 95.623 C 182.990 95.232,184.523 94.716,185.896 94.477 C 187.269 94.237,189.024 93.742,189.796 93.375 C 192.314 92.180,203.755 91.697,212.577 92.414 M196.400 103.622 C 194.425 103.803,192.246 104.279,191.200 104.758 C 190.210 105.211,188.950 105.588,188.400 105.595 C 187.850 105.602,186.500 106.050,185.400 106.591 C 184.300 107.132,183.222 107.581,183.004 107.587 C 182.581 107.601,178.219 109.795,175.140 111.544 C 174.117 112.125,172.575 112.992,171.713 113.471 C 170.852 113.950,169.911 114.625,169.624 114.971 C 169.337 115.317,168.925 115.600,168.709 115.600 C 168.492 115.600,167.800 116.005,167.171 116.500 C 166.541 116.995,165.291 117.940,164.394 118.600 C 163.496 119.260,162.247 120.250,161.619 120.800 C 160.991 121.350,159.620 122.520,158.572 123.400 C 154.355 126.941,151.600 129.857,151.600 130.779 C 151.600 131.904,158.649 138.982,165.305 144.541 C 166.793 145.783,168.182 146.800,168.391 146.800 C 168.601 146.800,169.183 147.176,169.686 147.636 C 171.496 149.292,173.723 150.800,174.359 150.800 C 174.716 150.800,175.218 151.137,175.476 151.550 C 175.733 151.962,176.451 152.425,177.072 152.579 C 177.692 152.733,178.560 153.182,179.000 153.577 C 179.440 153.972,180.326 154.420,180.968 154.572 C 181.611 154.725,182.574 155.194,183.109 155.614 C 183.644 156.035,184.738 156.500,185.541 156.647 C 186.343 156.795,187.403 157.229,187.894 157.611 C 188.386 157.994,189.814 158.434,191.066 158.591 C 192.319 158.747,193.798 159.173,194.353 159.538 C 195.896 160.550,210.235 160.752,212.800 159.798 C 213.790 159.429,215.848 158.872,217.374 158.559 C 218.900 158.246,220.430 157.737,220.774 157.429 C 221.118 157.120,222.077 156.742,222.903 156.589 C 223.730 156.435,224.810 155.996,225.303 155.613 C 225.797 155.230,226.861 154.701,227.668 154.438 C 228.475 154.174,229.345 153.707,229.600 153.400 C 229.855 153.093,230.680 152.638,231.432 152.389 C 232.184 152.141,232.800 151.780,232.800 151.588 C 232.800 151.395,233.610 150.879,234.600 150.441 C 235.590 150.003,236.400 149.458,236.400 149.230 C 236.400 149.002,236.855 148.701,237.411 148.562 C 237.966 148.422,238.603 147.969,238.825 147.554 C 239.047 147.139,239.459 146.800,239.742 146.800 C 240.025 146.800,240.873 146.276,241.628 145.636 C 242.383 144.995,243.515 144.050,244.144 143.536 C 244.773 143.021,245.835 142.105,246.503 141.500 C 247.172 140.895,247.860 140.400,248.032 140.400 C 248.205 140.400,248.454 140.059,248.586 139.643 C 248.718 139.227,249.194 138.790,249.643 138.673 C 250.092 138.555,250.553 138.103,250.667 137.667 C 250.781 137.231,251.231 136.781,251.667 136.667 C 252.103 136.553,252.553 136.103,252.667 135.667 C 252.781 135.231,253.216 134.784,253.635 134.675 C 254.054 134.566,254.513 134.171,254.656 133.798 C 254.799 133.425,255.328 132.708,255.832 132.204 C 257.555 130.481,256.955 129.709,247.589 121.600 C 246.446 120.610,244.586 119.126,243.455 118.303 C 242.325 117.479,241.130 116.557,240.800 116.254 C 240.470 115.950,239.795 115.576,239.300 115.424 C 238.805 115.271,238.400 114.982,238.400 114.781 C 238.400 114.580,237.646 114.032,236.725 113.562 C 235.804 113.092,234.801 112.458,234.497 112.154 C 234.192 111.849,233.721 111.600,233.449 111.600 C 233.178 111.600,232.345 111.150,231.600 110.600 C 230.855 110.050,229.944 109.600,229.576 109.600 C 229.209 109.600,228.472 109.257,227.940 108.839 C 227.407 108.420,226.168 107.863,225.186 107.601 C 224.204 107.340,223.115 106.872,222.767 106.562 C 222.419 106.251,221.086 105.804,219.805 105.567 C 218.523 105.330,217.076 104.875,216.589 104.556 C 214.866 103.427,204.024 102.926,196.400 103.622 M214.622 105.143 C 215.930 105.582,217.900 106.126,219.000 106.352 C 220.100 106.579,221.713 107.133,222.585 107.582 C 223.456 108.032,224.382 108.400,224.642 108.400 C 225.193 108.400,232.350 112.048,234.400 113.373 C 236.954 115.025,240.476 117.388,241.747 118.301 C 242.436 118.797,243.630 119.631,244.400 120.155 C 246.809 121.792,255.142 129.587,255.420 130.463 C 255.850 131.818,244.945 142.176,238.221 146.800 C 237.421 147.350,236.120 148.295,235.329 148.900 C 234.537 149.505,233.667 150.000,233.394 150.000 C 233.121 150.000,232.678 150.265,232.410 150.588 C 231.859 151.252,223.948 155.229,221.200 156.224 C 212.244 159.466,202.904 160.527,196.984 158.975 C 195.673 158.631,193.708 158.179,192.619 157.970 C 190.630 157.588,186.783 156.227,183.800 154.850 C 182.920 154.443,181.750 153.907,181.200 153.658 C 180.650 153.409,179.300 152.674,178.200 152.026 C 177.100 151.377,175.500 150.460,174.644 149.986 C 173.788 149.513,172.888 148.959,172.644 148.755 C 172.400 148.551,170.400 147.069,168.200 145.461 C 161.063 140.244,152.156 131.589,152.774 130.470 C 153.823 128.570,162.852 120.685,167.969 117.200 C 169.100 116.430,170.255 115.596,170.537 115.346 C 170.819 115.097,171.759 114.505,172.625 114.031 C 173.491 113.558,174.920 112.736,175.800 112.206 C 176.680 111.675,177.834 111.045,178.364 110.806 C 178.894 110.567,180.421 109.838,181.758 109.186 C 183.094 108.534,184.466 108.000,184.805 108.000 C 185.144 108.000,185.806 107.731,186.275 107.403 C 186.744 107.074,188.348 106.522,189.839 106.176 C 191.330 105.831,192.873 105.375,193.268 105.164 C 195.797 103.810,210.598 103.796,214.622 105.143 M298.324 134.219 C 298.153 143.511,298.028 145.185,297.444 146.077 C 297.025 146.717,296.570 148.787,296.263 151.458 C 295.949 154.185,295.505 156.190,295.069 156.849 C 294.687 157.427,294.272 158.867,294.147 160.049 C 294.022 161.232,293.572 162.695,293.148 163.300 C 292.723 163.905,292.223 165.217,292.037 166.215 C 291.850 167.212,291.423 168.337,291.086 168.714 C 290.750 169.091,290.260 170.204,289.999 171.186 C 289.737 172.168,289.180 173.407,288.761 173.940 C 288.343 174.472,288.000 175.231,288.000 175.625 C 288.000 176.020,287.729 176.614,287.398 176.945 C 286.775 177.568,285.254 180.108,284.246 182.208 C 283.927 182.873,283.291 183.755,282.833 184.170 C 282.375 184.585,282.000 185.141,282.000 185.407 C 282.000 185.673,281.466 186.590,280.814 187.445 C 280.161 188.300,279.306 189.435,278.914 189.968 C 278.521 190.500,277.705 191.427,277.100 192.028 C 276.495 192.629,276.000 193.267,276.000 193.446 C 276.000 193.625,275.660 194.138,275.245 194.586 C 273.385 196.592,265.524 204.298,264.417 205.200 C 263.743 205.750,262.676 206.650,262.048 207.200 C 259.065 209.811,258.278 210.400,257.773 210.400 C 257.473 210.400,257.037 210.758,256.803 211.195 C 256.568 211.633,255.942 212.100,255.410 212.233 C 254.877 212.367,254.175 212.884,253.848 213.383 C 253.521 213.881,252.685 214.403,251.990 214.542 C 251.224 214.695,250.649 215.093,250.529 215.552 C 250.393 216.069,249.834 216.388,248.765 216.559 C 246.986 216.844,246.318 218.800,248.000 218.800 C 248.587 218.800,248.800 218.533,248.800 217.800 C 248.800 216.867,248.933 216.800,250.800 216.800 C 252.667 216.800,252.800 216.733,252.800 215.800 C 252.800 214.925,252.974 214.800,254.192 214.800 C 255.344 214.800,255.628 214.627,255.836 213.800 C 256.031 213.022,256.343 212.800,257.243 212.800 C 258.202 212.800,258.400 212.633,258.400 211.827 C 258.400 211.062,258.636 210.826,259.500 210.727 C 260.288 210.636,260.636 210.344,260.728 209.700 C 260.819 209.058,261.125 208.800,261.795 208.800 C 263.215 208.800,264.000 208.389,264.000 207.645 C 264.000 207.268,264.525 206.777,265.200 206.522 C 265.860 206.273,266.400 205.787,266.400 205.442 C 266.400 205.097,266.850 204.702,267.400 204.564 C 268.021 204.408,268.400 204.030,268.400 203.564 C 268.400 203.099,268.779 202.720,269.400 202.564 C 270.021 202.408,270.400 202.030,270.400 201.564 C 270.400 201.099,270.779 200.720,271.400 200.564 C 272.031 200.406,272.400 200.031,272.400 199.547 C 272.400 199.097,272.813 198.623,273.400 198.400 C 273.950 198.191,274.400 197.741,274.400 197.401 C 274.400 197.061,274.836 196.584,275.369 196.341 C 275.902 196.098,276.440 195.494,276.565 194.999 C 276.689 194.503,277.243 193.802,277.795 193.440 C 278.421 193.030,278.800 192.407,278.800 191.791 C 278.800 191.080,279.017 190.800,279.568 190.800 C 280.097 190.800,280.419 190.425,280.600 189.600 C 280.745 188.940,281.117 188.400,281.426 188.400 C 281.736 188.400,282.265 187.739,282.603 186.932 C 282.940 186.125,283.572 185.215,284.008 184.909 C 284.444 184.604,284.800 183.936,284.800 183.424 C 284.800 182.834,285.089 182.418,285.589 182.287 C 286.145 182.142,286.453 181.608,286.634 180.475 C 286.806 179.402,287.131 178.807,287.614 178.680 C 288.122 178.548,288.420 177.942,288.614 176.646 C 288.829 175.215,289.058 174.800,289.632 174.800 C 290.216 174.800,290.427 174.388,290.632 172.843 C 290.834 171.322,291.099 170.792,291.824 170.462 C 292.601 170.108,292.777 169.686,292.878 167.935 C 292.985 166.096,293.120 165.805,293.953 165.609 C 294.838 165.402,294.910 165.188,294.953 162.612 C 294.997 160.032,295.067 159.823,295.959 159.611 C 296.890 159.390,296.916 159.278,296.834 155.880 L 296.750 152.376 297.954 151.956 L 299.158 151.536 298.920 145.456 C 298.665 138.929,298.944 135.600,299.744 135.600 C 301.310 135.600,301.675 128.999,300.147 128.303 C 299.454 127.987,299.172 127.438,298.985 126.043 C 298.848 125.029,298.689 124.020,298.630 123.800 C 298.572 123.580,298.434 128.269,298.324 134.219 M243.600 219.800 C 243.600 220.422,243.827 220.800,244.200 220.800 C 244.573 220.800,244.800 220.422,244.800 219.800 C 244.800 219.178,244.573 218.800,244.200 218.800 C 243.827 218.800,243.600 219.178,243.600 219.800 M240.142 221.800 C 240.218 223.103,240.800 223.103,240.800 221.800 C 240.800 221.250,240.639 220.800,240.442 220.800 C 240.246 220.800,240.111 221.250,240.142 221.800 " stroke="none" fill="#948480" fill-rule="evenodd"></path></g></svg>