<?xml version="1.0" standalone="no"?>
<!DOCTYPE svg PUBLIC "-//W3C//DTD SVG 20010904//EN"
 "http://www.w3.org/TR/2001/REC-SVG-20010904/DTD/svg10.dtd">
<svg version="1.0" xmlns="http://www.w3.org/2000/svg"
 width="200.000000pt" height="200.000000pt" viewBox="0 0 200.000000 200.000000"
 preserveAspectRatio="xMidYMid meet">

<g transform="translate(0.000000,200.000000) scale(0.100000,-0.100000)"
fill="#000000" stroke="none">
<path d="M905 1727 c-154 -52 -258 -169 -287 -326 -32 -173 65 -356 229 -434
63 -30 76 -32 173 -32 97 0 110 2 173 32 310 147 310 590 0 736 -58 27 -81 32
-158 34 -55 2 -105 -2 -130 -10z m190 -192 c77 -20 151 -65 216 -131 43 -44
49 -55 40 -71 -20 -38 -130 -131 -188 -160 -50 -24 -70 -28 -143 -28 -73 0
-93 4 -143 29 -57 28 -197 150 -197 172 0 21 127 131 182 158 48 23 112 42
158 45 9 1 43 -6 75 -14z"/>
<path d="M950 1471 c-49 -16 -106 -49 -149 -88 l-44 -39 49 -43 c78 -69 138
-95 214 -95 76 0 136 26 213 94 l48 43 -32 33 c-52 54 -142 96 -213 100 -33 2
-72 0 -86 -5z"/>
</g>
</svg>
