<?xml version="1.0" standalone="no"?>
<!DOCTYPE svg PUBLIC "-//W3C//DTD SVG 20010904//EN"
 "http://www.w3.org/TR/2001/REC-SVG-20010904/DTD/svg10.dtd">
<svg version="1.0" xmlns="http://www.w3.org/2000/svg"
 width="200.000000pt" height="200.000000pt" viewBox="0 0 200.000000 200.000000"
 preserveAspectRatio="xMidYMid meet">

<g transform="translate(0.000000,200.000000) scale(0.100000,-0.100000)"
fill="#000000" stroke="none">
<path d="M740 1125 c0 -88 2 -95 20 -95 16 0 19 8 22 58 l4 57 13 -32 c8 -20
20 -33 31 -33 11 0 21 12 28 33 9 30 10 29 11 -26 1 -55 2 -58 24 -55 21 3 22
8 25 96 l3 92 -30 0 c-25 0 -31 -5 -41 -37 -18 -57 -26 -59 -40 -9 -11 41 -16
46 -41 46 l-29 0 0 -95z"/>
<path d="M1176 1203 c-8 -28 -46 -167 -46 -170 0 -2 11 -3 25 -3 16 0 25 6 25
15 0 10 10 15 30 15 20 0 30 -5 30 -15 0 -9 9 -15 25 -15 21 0 24 4 20 23 -44
174 -39 162 -72 165 -23 2 -33 -2 -37 -15z m46 -73 c4 -24 1 -30 -13 -30 -12
0 -17 5 -14 15 3 8 7 22 10 30 7 23 12 18 17 -15z"/>
<path d="M1310 1124 c0 -93 1 -95 23 -92 21 3 22 8 25 96 l3 92 -26 0 -25 0 0
-96z"/>
<path d="M951 1118 c10 -35 23 -64 29 -66 18 -6 11 -22 -10 -22 -13 0 -20 -7
-20 -20 0 -23 15 -25 49 -7 19 9 29 30 46 95 l22 82 -23 0 c-23 0 -25 -4 -37
-65 -4 -22 -11 -11 -21 38 -5 20 -12 27 -30 27 l-24 0 19 -62z"/>
<path d="M750 896 c0 -89 1 -96 20 -96 17 0 20 7 21 53 l0 52 24 -52 c18 -39
29 -53 44 -53 20 0 21 6 21 95 0 95 0 95 -25 95 -23 0 -25 -4 -26 -47 l0 -48
-18 45 c-13 31 -25 46 -40 48 -20 3 -21 0 -21 -92z"/>
<path d="M1060 966 c0 -8 -6 -16 -12 -19 -10 -3 -10 -9 0 -26 6 -11 12 -39 12
-61 0 -38 18 -60 49 -60 14 0 14 37 1 45 -14 9 -13 58 2 73 9 9 8 17 -2 37
-14 27 -50 35 -50 11z"/>
<path d="M911 931 c-12 -22 -14 -90 -3 -107 11 -18 49 -26 83 -19 l30 7 -3 66
-3 67 -47 3 c-38 2 -49 -1 -57 -17z m69 -51 c0 -29 -4 -40 -15 -40 -11 0 -15
11 -15 40 0 29 4 40 15 40 11 0 15 -11 15 -40z"/>
<path d="M1147 944 c-4 -4 -7 -34 -7 -66 0 -52 3 -60 25 -70 32 -14 89 1 93
26 3 16 -1 17 -38 11 -33 -6 -41 -4 -38 6 3 8 21 15 42 17 36 3 37 4 34 40 -3
37 -3 37 -53 40 -28 2 -54 0 -58 -4z m68 -34 c3 -6 -1 -13 -10 -16 -19 -8 -30
0 -20 15 8 14 22 14 30 1z"/>
<path d="M1287 944 c-11 -12 -8 -59 5 -72 7 -7 22 -12 35 -12 24 0 31 -14 13
-25 -5 -3 -10 -1 -10 4 0 6 -11 11 -25 11 -34 0 -33 -28 2 -41 14 -5 39 -7 55
-3 26 5 29 9 26 42 -3 32 -7 37 -30 40 -26 3 -42 32 -18 32 6 0 10 -4 10 -10
0 -5 9 -10 21 -10 15 0 20 5 17 23 -3 19 -10 22 -48 25 -25 2 -49 0 -53 -4z"/>
</g>
</svg>
