<?xml version="1.0" standalone="no"?>
<!DOCTYPE svg PUBLIC "-//W3C//DTD SVG 20010904//EN"
 "http://www.w3.org/TR/2001/REC-SVG-20010904/DTD/svg10.dtd">
<svg version="1.0" xmlns="http://www.w3.org/2000/svg"
 width="700.000000pt" height="700.000000pt" viewBox="0 0 700.000000 700.000000"
 preserveAspectRatio="xMidYMid meet">
<metadata>
Created by potrace 1.14, written by Peter Selinger 2001-2017
</metadata>
<g transform="translate(0.000000,700.000000) scale(0.100000,-0.100000)"
fill="#000000" stroke="none">
<path d="M3257 6333 c-12 -12 -35 -18 -75 -19 -83 -3 -82 -3 -82 -19 0 -11
-11 -15 -39 -15 -46 0 -73 -9 -65 -21 3 -5 2 -9 -3 -10 -61 -5 -90 -12 -99
-24 -6 -8 -23 -15 -37 -15 -14 0 -30 -7 -35 -16 -8 -14 -26 -21 -59 -23 -7 -1
-13 -8 -13 -16 0 -9 -9 -15 -23 -15 -14 0 -40 -15 -60 -35 -20 -19 -45 -35
-56 -35 -12 0 -26 -9 -33 -20 -7 -11 -18 -20 -25 -20 -7 0 -13 -7 -13 -15 0
-8 -7 -15 -15 -15 -8 0 -15 -6 -15 -14 0 -8 -12 -19 -27 -25 -16 -7 -37 -17
-48 -24 -25 -14 -134 -126 -136 -139 -1 -4 -3 -12 -4 -18 -1 -5 -3 -14 -4 -20
0 -5 -8 -10 -16 -10 -8 0 -15 -7 -15 -15 0 -8 -7 -15 -15 -15 -8 0 -15 -6 -15
-14 0 -8 -9 -17 -19 -21 -10 -3 -22 -17 -25 -30 -4 -14 -11 -25 -16 -25 -6 0
-10 -9 -10 -20 0 -10 -9 -24 -20 -30 -13 -7 -20 -21 -20 -40 0 -20 -5 -30 -15
-30 -13 0 -21 -14 -13 -22 2 -2 -7 -17 -20 -35 -12 -17 -22 -43 -22 -57 0 -16
-6 -26 -14 -26 -17 0 -28 -24 -20 -44 3 -8 -3 -19 -15 -26 -16 -8 -21 -20 -21
-55 0 -30 -5 -47 -16 -53 -11 -6 -18 -25 -19 -54 -2 -25 -11 -57 -20 -71 -9
-14 -16 -28 -16 -31 5 -32 -1 -196 -6 -195 -26 4 -28 -10 -28 -171 0 -155 2
-170 18 -170 15 0 17 -11 17 -95 0 -74 4 -102 17 -122 10 -15 18 -45 19 -67 3
-64 3 -66 19 -66 11 0 15 -12 15 -50 0 -38 4 -50 15 -50 8 0 16 -4 16 -10 1
-5 3 -14 4 -20 1 -5 3 -19 4 -30 0 -11 7 -19 14 -18 7 2 13 -10 15 -27 2 -16
12 -40 23 -53 10 -14 19 -31 19 -38 0 -7 6 -17 14 -21 8 -4 16 -21 18 -38 2
-18 8 -29 16 -27 7 1 17 -9 22 -22 5 -13 14 -27 19 -31 6 -3 11 -13 11 -21 0
-8 25 -39 55 -69 30 -31 55 -62 55 -70 0 -8 16 -31 35 -51 19 -19 35 -38 35
-41 0 -9 33 -32 66 -47 17 -8 59 -41 93 -75 38 -37 72 -62 87 -63 13 -1 27
-10 30 -20 3 -9 14 -20 25 -23 10 -4 19 -11 19 -16 0 -5 12 -9 26 -9 17 0 28
-6 31 -20 4 -15 14 -20 39 -20 24 0 34 -5 34 -15 0 -8 8 -16 18 -17 9 0 23 -2
30 -2 7 -1 17 -7 21 -14 5 -8 28 -16 52 -18 25 -2 49 -11 56 -21 8 -10 28 -17
55 -17 32 -1 44 -6 46 -19 3 -15 16 -17 94 -17 76 0 89 -2 84 -15 -3 -8 -2
-16 2 -16 21 -3 569 -4 579 -1 6 2 9 10 6 18 -4 11 6 14 43 15 96 2 123 6 139
23 11 10 30 16 51 14 23 -1 38 4 46 15 8 10 30 19 52 21 22 2 45 11 52 21 7 9
22 15 35 13 15 -2 27 4 34 17 7 15 18 20 39 18 21 -1 29 3 33 18 4 14 14 19
39 19 27 0 34 4 34 19 0 13 6 18 23 16 15 -2 38 10 66 35 25 23 49 36 58 33 9
-4 16 2 20 16 3 12 13 21 24 21 11 0 19 7 19 15 0 8 4 15 9 15 17 0 242 230
236 240 -4 6 -3 10 2 9 21 -4 34 2 30 14 -5 13 37 76 60 90 7 4 13 18 13 30 0
13 9 30 20 39 13 12 18 26 15 46 -2 23 1 29 13 28 11 -1 18 8 20 27 2 15 12
32 24 38 13 7 18 17 15 30 -3 12 3 27 15 39 15 14 20 32 21 70 0 31 3 46 9 38
6 -10 10 -10 18 2 15 22 13 63 -2 54 -10 -6 -10 -4 0 8 7 8 9 24 5 33 -5 14
-3 17 10 12 25 -9 29 7 29 99 1 46 5 81 9 78 20 -12 28 56 28 238 -1 211 -3
232 -25 224 -13 -5 -15 9 -13 84 2 72 0 93 -14 108 -11 12 -17 35 -17 67 0 31
-6 55 -16 66 -9 10 -18 35 -19 55 -1 21 -9 43 -19 49 -9 7 -16 24 -16 38 0 14
-7 30 -17 35 -9 5 -17 20 -19 33 -1 13 -3 27 -3 32 -1 4 -8 7 -16 7 -10 0 -15
10 -15 30 0 19 -7 33 -20 40 -11 6 -17 17 -14 24 3 8 -3 23 -13 34 -21 22 -39
48 -56 82 -6 14 -33 46 -58 71 -26 25 -50 55 -53 67 -9 28 -112 130 -165 162
-22 14 -41 31 -41 38 0 6 -4 12 -9 12 -6 0 -27 16 -48 35 -21 19 -48 35 -60
35 -14 0 -23 6 -23 15 0 8 -6 15 -14 15 -8 0 -22 10 -31 23 -8 12 -18 21 -20
20 -16 -9 -45 -1 -45 12 0 13 -26 21 -53 16 -5 -1 -11 8 -14 19 -4 14 -14 20
-36 20 -16 0 -35 7 -41 16 -7 9 -28 16 -51 17 -25 1 -45 8 -53 19 -9 12 -26
18 -52 18 -23 0 -42 6 -47 14 -5 9 -32 16 -77 20 -41 3 -76 12 -86 21 -14 13
-61 15 -311 15 -265 0 -296 -2 -312 -17z m318 -253 c-3 -5 -12 -10 -18 -10 -7
0 -6 4 3 10 19 12 23 12 15 0z m60 0 c3 -6 -1 -7 -9 -4 -18 7 -21 14 -7 14 6
0 13 -4 16 -10z m55 0 c0 -5 -5 -10 -11 -10 -5 0 -7 5 -4 10 3 6 8 10 11 10 2
0 4 -4 4 -10z m1315 -1389 c3 -5 2 -12 -3 -15 -5 -3 -9 1 -9 9 0 17 3 19 12 6z
m125 -661 c0 -5 -5 -10 -11 -10 -5 0 -7 5 -4 10 3 6 8 10 11 10 2 0 4 -4 4
-10z m-39 -67 c-12 -20 -14 -14 -5 12 4 9 9 14 11 11 3 -2 0 -13 -6 -23z
m-361 -507 c0 -2 -7 -7 -16 -10 -8 -3 -12 -2 -9 4 6 10 25 14 25 6z m-87 -81
c-3 -9 -8 -14 -10 -11 -3 3 -2 9 2 15 9 16 15 13 8 -4z m-23 -29 c0 -2 -7 -6
-15 -10 -8 -3 -15 -1 -15 4 0 6 7 10 15 10 8 0 15 -2 15 -4z m-60 -30 c0 -2
-7 -7 -16 -10 -8 -3 -12 -2 -9 4 6 10 25 14 25 6z"/>
</g>
</svg>
